<svg xmlns="http://www.w3.org/2000/svg" width="12.123" height="9.475" viewBox="0 0 12.123 9.475">
    <path fill="#5c6754" d="M9.344 4.568L5.053.135a.48.48 0 0 0-.068-.057L4.963.065a.481.481 0 0 0-.054-.03c-.01 0-.021-.006-.031-.01a.435.435 0 0 0-.052-.016.428.428 0 0 0-.177 0A.433.433 0 0 0 4.6.026c-.01 0-.021.006-.031.01a.48.48 0 0 0-.054.03l-.026.012a.48.48 0 0 0-.067.057L.13 4.568a.472.472 0 0 0 0 .651.436.436 0 0 0 .63 0l3.532-3.648v10.091a.446.446 0 1 0 .891 0V1.571l3.531 3.648a.436.436 0 0 0 .63 0 .472.472 0 0 0 0-.651z" transform="rotate(90 6.061 6.062)"/>
</svg>
