<svg xmlns="http://www.w3.org/2000/svg" width="14.123" height="11.475" viewBox="0 0 14.123 11.475">
    <g>
        <path fill="#5c6754" d="M11.317 5.321L6.119.157a.576.576 0 0 0-.082-.066L6.01.076a.59.59 0 0 0-.065-.035C5.933.036 5.92.034 5.907.03a.542.542 0 0 0-.063-.019.539.539 0 0 0-.214 0 .539.539 0 0 0-.063.019c-.012 0-.025.006-.037.011a.588.588 0 0 0-.066.035l-.027.015a.576.576 0 0 0-.082.066L.158 5.321a.534.534 0 0 0 0 .759.542.542 0 0 0 .763 0L5.2 1.83v11.756a.539.539 0 0 0 1.079 0V1.83l4.275 4.25a.538.538 0 1 0 .763-.759z" transform="translate(0 0) translate(14.123 0) rotate(90)"/>
    </g>
</svg>
