<svg xmlns="http://www.w3.org/2000/svg" width="24.716" height="20.714" viewBox="0 0 24.716 20.714">
    <defs>
        <style>
            .cls-1,.cls-2{fill:#5c6754;stroke:#5c6854;stroke-width:.5px}.cls-2{stroke-miterlimit:10}
        </style>
    </defs>
    <g id="알림" transform="translate(.25 .269)">
        <g id="그룹_645">
            <path id="패스_429" d="M131.776 267.673a1.336 1.336 0 0 1-.876-.329l-6.364-5.508h-5.206V256.5a.619.619 0 0 1 1.238 0v4.1H125l6.711 5.809.181-.082v-17.5l-.585-.549.4.468-6.707 5.807h-5.049a.619.619 0 1 1 0-1.238h4.588l6.364-5.508a1.347 1.347 0 0 1 2.228 1.017v17.5a1.332 1.332 0 0 1-.787 1.224 1.359 1.359 0 0 1-.568.125z" class="cls-1" transform="translate(-119.33 -247.478)"/>
        </g>
        <g id="그룹_646" transform="translate(20.424 1.722)"/>
        <g id="그룹_647" transform="translate(19.805 1.104)">
            <path id="패스_431" d="M135.952 266.357a.619.619 0 0 1-.463-1.03 12.016 12.016 0 0 0 0-15.929.618.618 0 0 1 .926-.821 13.252 13.252 0 0 1 0 17.57.615.615 0 0 1-.463.21z" class="cls-1" transform="translate(-135.333 -248.37)"/>
        </g>
        <g id="그룹_648" transform="translate(20.424 18.472)"/>
        <g id="그룹_649" transform="translate(17.51 15.323)"/>
        <g id="그룹_650" transform="translate(17.076 4.439)">
            <path id="패스_434" d="M133.562 262.381a.426.426 0 0 1-.271-.1.433.433 0 0 1-.068-.609 7.942 7.942 0 0 0 0-9.909.433.433 0 1 1 .677-.541 8.806 8.806 0 0 1 0 10.992.433.433 0 0 1-.338.167z" class="cls-1" transform="translate(-133.128 -251.065)"/>
        </g>
    </g>
</svg>
