<svg xmlns="http://www.w3.org/2000/svg" width="19" height="19.001" viewBox="0 0 19 19.001">
    <path fill="#fff" d="M317.026 193.442l-4.33-4.33c.04-.05.073-.1.112-.152.12-.156.241-.313.349-.476.031-.046.055-.094.085-.141.115-.181.227-.364.327-.553.014-.028.026-.057.041-.086.107-.208.207-.419.295-.636.008-.016.012-.034.019-.05.091-.227.173-.458.242-.693l.015-.059c.066-.231.125-.463.17-.7.012-.058.016-.117.026-.174.034-.2.067-.4.086-.6a8.186 8.186 0 0 0 0-1.571c-.019-.2-.052-.4-.086-.6-.009-.057-.014-.114-.026-.172-.045-.237-.1-.47-.171-.7l-.014-.056c-.069-.236-.152-.467-.243-.7-.007-.015-.011-.032-.017-.048-.089-.218-.19-.43-.3-.64-.014-.027-.025-.056-.039-.084-.1-.19-.214-.374-.329-.557-.029-.045-.053-.092-.083-.137-.109-.166-.231-.324-.354-.481-.044-.058-.083-.119-.13-.175-.143-.175-.3-.342-.458-.506-.032-.033-.059-.069-.091-.1a8.114 8.114 0 0 0-11.474 0c-.027.027-.05.058-.078.086-.165.169-.324.342-.472.522-.044.055-.081.113-.125.168-.124.16-.247.32-.359.488-.028.044-.051.089-.079.132-.117.184-.231.37-.332.561-.015.027-.026.056-.039.084-.108.209-.208.422-.3.64-.006.015-.01.032-.017.048-.091.228-.173.459-.243.7-.006.019-.009.038-.015.056-.067.231-.126.465-.172.7-.009.051-.014.1-.022.155-.036.2-.069.407-.089.614a8.177 8.177 0 0 0 0 1.57c.02.206.053.409.088.611.009.052.014.106.024.158.045.237.1.47.17.7l.015.059c.069.235.151.465.242.693.007.016.011.034.018.05.089.217.189.428.3.636.015.029.026.058.041.086.1.191.214.376.33.558.028.044.052.091.082.136.109.166.231.324.354.482.044.057.083.117.129.173.143.175.3.342.459.507.032.033.059.068.09.1s.069.06.1.091c.164.16.331.315.506.459.056.046.117.085.175.13.157.122.315.243.48.353.045.03.093.055.138.084.182.115.365.228.556.328.029.015.06.027.09.043.207.106.417.206.633.294.018.007.037.012.055.02.225.09.454.172.687.24.021.007.044.01.066.017.228.065.459.124.693.169.057.011.114.015.172.025.2.034.4.067.6.086a8.05 8.05 0 0 0 1.571 0c.2-.019.4-.052.6-.085.058-.01.117-.015.174-.026.234-.045.464-.1.691-.169.022-.006.045-.01.067-.017.232-.068.46-.149.685-.239l.059-.02c.214-.088.423-.187.629-.293.031-.015.062-.027.093-.044.189-.1.371-.212.552-.326.047-.03.1-.055.142-.085.163-.108.319-.229.476-.349.049-.038.1-.072.152-.112l4.329 4.33a.854.854 0 1 0 1.208-1.207zm-10.638-3.093a6.338 6.338 0 1 1 6.337-6.338 6.337 6.337 0 0 1-6.336 6.338z" transform="translate(-298.277 -175.898)"/>
</svg>
