<svg xmlns="http://www.w3.org/2000/svg" width="24.7" height="20.475" viewBox="0 0 24.7 20.475">
    <defs>
        <style>
            .cls-1{fill:none;stroke:#5c6754;stroke-linecap:round;stroke-miterlimit:10;stroke-width:1.8px}
        </style>
    </defs>
    <g id="그룹_1" transform="translate(.9 .9)">
        <path id="패스_127" d="M2110.389 1122.97h1.7a2.407 2.407 0 0 1 1.717 1.562c.679 1.458 3.415 10.364 3.615 10.723s.552 1 2.671 1h9.889a1.819 1.819 0 0 0 .639-.2 1.588 1.588 0 0 0 .279-.181 1.513 1.513 0 0 0 .434-.544 2.52 2.52 0 0 0 .2-.414c.15-.4.273-.815.4-1.224q.29-.926.568-1.855.266-.879.526-1.76c.052-.175.1-.35.155-.525a1.694 1.694 0 0 0 .083-.938 2.088 2.088 0 0 0-.344-.723 1.925 1.925 0 0 0-1.305-.75c-1.452-.193-14.3 0-14.3 0" class="cls-1" transform="translate(-2110.389 -1122.97)"/>
        <circle id="타원_132" cx="1.669" cy="1.669" r="1.669" class="cls-1" transform="translate(8.035 15.337)"/>
        <circle id="타원_133" cx="1.669" cy="1.669" r="1.669" class="cls-1" transform="translate(16.802 15.337)"/>
    </g>
</svg>
