<svg xmlns="http://www.w3.org/2000/svg" width="83.32" height="83.32" viewBox="0 0 83.32 83.32">
    <defs>
        <style>
            .cls-2{fill:#401d1d}
        </style>
    </defs>
    <g id="그룹_33" transform="translate(-180.262 -5813.559)">
        <circle id="타원_24" cx="41.66" cy="41.66" r="41.66" fill="#f8da00" transform="translate(180.262 5813.559)"/>
        <g id="그룹_32" transform="translate(195.75 5830.84)">
            <path id="패스_47" d="M249.663 5853.49a17.907 17.907 0 0 1-5.383 12.588 27.243 27.243 0 0 1-15.252 7.713 34.1 34.1 0 0 1-9.554.229 1.6 1.6 0 0 0-.963.229c-3.492 2.272-6.968 4.57-10.448 6.862-.086.056-.168.151-.26.164-.25.033-.589.136-.734.017a.914.914 0 0 1-.255-.741c.346-2.011.735-4.013 1.111-6.018.209-1.114.4-2.233.635-3.341a.692.692 0 0 0-.4-.886 22.4 22.4 0 0 1-8.2-7.732 17.3 17.3 0 0 1 1.957-20.934 26.069 26.069 0 0 1 14.245-8.183 31.287 31.287 0 0 1 20.994 2.233 22.237 22.237 0 0 1 10.763 10.273 16.663 16.663 0 0 1 1.744 7.527zm-11.884-.207a5.345 5.345 0 0 0 .684-.485c.985-.969 1.965-1.944 2.928-2.936a1.174 1.174 0 0 0 .193-1.48 1.082 1.082 0 0 0-1.31-.569 2.31 2.31 0 0 0-.9.6c-1.207 1.185-2.39 2.395-3.584 3.592-.12.121-.26.222-.516.437 0-1.263.007-2.369 0-3.476-.008-.95-.5-1.472-1.369-1.469a1.346 1.346 0 0 0-1.377 1.483c-.012.639 0 1.279 0 1.918 0 2.744-.006 5.487.008 8.231a1.321 1.321 0 0 0 1.376 1.421 1.286 1.286 0 0 0 1.364-1.412c.014-.783.054-1.572-.011-2.35a1.56 1.56 0 0 1 .863-1.529c.142.178.27.334.392.495 1.045 1.382 2.086 2.767 3.135 4.145a1.322 1.322 0 0 0 1.877.432 1.306 1.306 0 0 0 .124-1.922c-.741-.991-1.493-1.974-2.238-2.96-.518-.668-1.018-1.341-1.639-2.166zm-15.522 7.272a1.154 1.154 0 0 0 1.2-1.08 2.22 2.22 0 0 0-.147-.841q-1.769-4.915-3.56-9.819a1.759 1.759 0 0 0-1.743-1.314 1.722 1.722 0 0 0-1.884 1.1q-1.915 5.123-3.787 10.261a1.239 1.239 0 1 0 2.331.83c.168-.443.341-.886.465-1.343a.527.527 0 0 1 .617-.442q2.1.023 4.209 0c.339 0 .529.084.627.43.134.476.314.938.488 1.4a1.161 1.161 0 0 0 1.184.818zm-14.406-10.32V5859.163a1.232 1.232 0 0 0 .846 1.348 1.36 1.36 0 0 0 1.888-1.428q.005-4.053 0-8.106v-.742h2.086c.918-.007 1.5-.5 1.5-1.277.01-.8-.546-1.3-1.466-1.3q-3.558-.01-7.116 0a1.305 1.305 0 1 0-.015 2.582c.726.002 1.445-.005 2.276-.005zm19.182 7.942v-.837-8.287c0-.987-.5-1.541-1.371-1.552a1.354 1.354 0 0 0-1.413 1.52q-.019 5.071 0 10.143a1.21 1.21 0 0 0 1.346 1.346q2.381.026 4.763 0c.852-.008 1.34-.479 1.324-1.218-.016-.709-.495-1.111-1.337-1.114-1.073-.003-2.145-.001-3.313-.001z" class="cls-2" transform="translate(-197.319 -5832.591)"/>
            <path id="패스_48" d="M219.831 5852.545l1.674 4.817h-3.475l1.671-4.809z" class="cls-2" transform="translate(-199.225 -5834.427)"/>
        </g>
    </g>
</svg>
