<svg xmlns="http://www.w3.org/2000/svg" width="22.065" height="17" viewBox="0 0 22.065 17">
    <path fill="#5c6754" d="M1729.767 2751.608a5.827 5.827 0 0 0-8.26 0l-1.11 1.115-1.015-1.021a5.841 5.841 0 0 0-9.972 4.151 5.847 5.847 0 0 0 1.711 4.15l5.144 5.169a5.821 5.821 0 0 0 8.26 0l.016-.019c.027-.026.056-.049.083-.076l5.143-5.169a5.9 5.9 0 0 0 0-8.3zm-18.64 4.245a4.125 4.125 0 0 1 7.041-2.931l1.015 1.021-2.82 2.834a5.863 5.863 0 0 0-1.7 4.347l-2.329-2.342a4.127 4.127 0 0 1-1.207-2.928zm17.426 2.836l-5.143 5.169a4.115 4.115 0 0 1-5.832 0 4.164 4.164 0 0 1 0-5.861l2.82-2.834 1.635 1.644a.856.856 0 0 0 1.215 0 .867.867 0 0 0 0-1.22l-1.636-1.644 1.109-1.115a4.116 4.116 0 0 1 5.832 0 4.164 4.164 0 0 1 0 5.861z" transform="translate(-1709.41 -2749.892)"/>
</svg>
