<svg xmlns="http://www.w3.org/2000/svg" width="200" height="148.072" viewBox="0 0 200 148.072">
    <path fill="#005600" d="M939.137 111.262h-.092a14.59 14.59 0 0 1-14.213-12.042c-2.352-13.27 7.3-25.789 13.482-32.245 13.608-14.217 31.8-22.277 47.844-29.387l1.788-.792a.974.974 0 0 1 1.345 1.111l-.45 1.9c-4.036 17.025-8.612 36.322-20.114 52.279-5.258 7.291-15.927 19.176-29.59 19.176zm44.551-66.615a.976.976 0 0 0-1.35-1.114c-14.751 6.618-29.555 13.942-41.206 26.116-5.925 6.19-15.374 18.393-12.1 30.564a9.687 9.687 0 0 0 8.622 7.118c12.614.948 22.9-10.562 27.909-17.509 9.852-13.663 14.331-29.511 18.124-45.175z" transform="translate(-860.142 -32.426)"/>
    <path d="M943.88 135.412a2.4 2.4 0 0 1-2.913.039l-7.765-6.579-16.494-13.972-15.045-12.748a50.077 50.077 0 0 1-5.284-4.69c-.682-.774-3.266-3.615-1.846-4.423 2.818-1.605 10.957 6.231 12.791 7.752l16.189 13.421 14.649 12.146c.885.733 1.782 1.459 2.654 2.2a2.407 2.407 0 0 0 2.9-.026l93.059-83.275c1.032-.941 14.706-13.514 16.062-12.8s-13.49 15.071-14.521 16.012z" transform="translate(-860.264 -32.426)"/>
    <g>
        <path d="M899.876 108.783a11.438 11.438 0 0 1 2.415 2.953 9.1 9.1 0 0 1 1.112 3.294 8.089 8.089 0 0 1-.308 3.432 9.23 9.23 0 0 1-1.853 3.291 12.294 12.294 0 0 1-3.869 3.13 9.943 9.943 0 0 1-4.251 1.088 10.623 10.623 0 0 1-4.33-.854 14.808 14.808 0 0 1-4.176-2.684l-9.355-8.334-12.336 9.444-2.524-2.249 28.786-22.035zm-13.313 11.512a10.354 10.354 0 0 0 2.916 1.864 8.039 8.039 0 0 0 3.113.636 7.047 7.047 0 0 0 3.056-.716 8.407 8.407 0 0 0 2.747-2.195 7.8 7.8 0 0 0 1.564-2.646 5.106 5.106 0 0 0 .182-2.477 6.028 6.028 0 0 0-.994-2.321 12.61 12.61 0 0 0-2-2.214l-7.759-6.913-11.773 9.012z" transform="translate(0 66.833) translate(-860.399 -99.259)"/>
    </g>
    <g>
        <g>
            <path d="M1001 99.953a10.382 10.382 0 0 0-6.6 3.456 14.244 14.244 0 0 0-3.739 6.187 16.043 16.043 0 0 0-.417 6.677 19.533 19.533 0 0 0 2.227 6.542 26.411 26.411 0 0 0 4.266 5.781 14.178 14.178 0 0 0 3.994 2.967 10.157 10.157 0 0 0 4.244 1.045 9.884 9.884 0 0 0 4.282-.915 13.434 13.434 0 0 0 4.044-2.909 11.778 11.778 0 0 0 2.323-3.361 12.1 12.1 0 0 0 1.052-3.915 13.463 13.463 0 0 0-.285-4.222 16.368 16.368 0 0 0-1.625-4.278l2.372-2.415a19.4 19.4 0 0 1 2.232 5.01 14.867 14.867 0 0 1-.861 10.54 18.163 18.163 0 0 1-3.614 5.067 16.3 16.3 0 0 1-5.107 3.637 12.429 12.429 0 0 1-5.343 1.072 12.637 12.637 0 0 1-5.3-1.385 18.483 18.483 0 0 1-4.984-3.737 26.376 26.376 0 0 1-4.82-6.815 22.384 22.384 0 0 1-2.225-7.717 19.181 19.181 0 0 1 .854-7.834 18.071 18.071 0 0 1 4.456-7.129 16.812 16.812 0 0 1 4.184-3.159 11.763 11.763 0 0 1 4.51-1.359 10.173 10.173 0 0 1 4.557.689 12.86 12.86 0 0 1 4.393 2.985l-2.372 2.416q-3.231-3.174-6.698-2.921z" transform="translate(127.128 64.325) translate(-987.019 -96.75)"/>
        </g>
    </g>
    <g>
        <g>
            <path d="M1022.213 75.395l10.4 16.49h.14l2.715-30.06 3.306-3.384-2.366 23.65 23.349 5.734-2.714 2.778-20.914-5.235-1.112 10.186 6.75 10.686-2.366 2.422-19.556-30.845z" transform="translate(160.087 26.015) translate(-1019.847 -58.441)"/>
        </g>
    </g>
    <path fill="none" stroke="#000" stroke-miterlimit="10" d="M0 0L0 37.489" transform="translate(82.867 110.583)"/>
</svg>
