<svg xmlns="http://www.w3.org/2000/svg" width="83.32" height="83.32" viewBox="0 0 83.32 83.32">
    <g transform="translate(-180.262 -5930.755)">
        <circle cx="41.66" cy="41.66" r="41.66" fill="#d0d0d0" transform="translate(180.262 5930.755)"/>
        <path fill="#005600" d="M203.745 5965.946a14.57 14.57 0 0 1 3.792-10.028 12.56 12.56 0 0 1 3.341-2.864 3.2 3.2 0 0 1 4.343.76 22.1 22.1 0 0 1 4.177 6.5 6.588 6.588 0 0 1 .5 2.856 3.343 3.343 0 0 1-1.208 2.436c-.874.732-1.733 1.487-2.648 2.165a3.6 3.6 0 0 0-1.308 4.9 27.281 27.281 0 0 0 2.133 3.673 34.377 34.377 0 0 0 6.916 7.318 5.254 5.254 0 0 0 2.953 1.258 3.785 3.785 0 0 0 3.3-1.625 7.958 7.958 0 0 1 3.13-2.436 4.361 4.361 0 0 1 4.369.439 32.529 32.529 0 0 1 5.9 4.964 3.09 3.09 0 0 1 .094 4.436 31.267 31.267 0 0 1-2.638 2.481 13.857 13.857 0 0 1-9.507 3.1 18.575 18.575 0 0 1-6.3-1.671 27.537 27.537 0 0 1-9.253-6.587 97.811 97.811 0 0 1-6.795-7.918 22.854 22.854 0 0 1-2.979-5.1c-.585-1.426-1.187-2.852-1.649-4.318a14.992 14.992 0 0 1-.663-4.739z" transform="translate(-2.16 -2.003)"/>
    </g>
</svg>
