<svg xmlns="http://www.w3.org/2000/svg" width="22.25" height="22.25" viewBox="0 0 22.25 22.25">
    <path fill="#707070" d="M320.233 196.442l-5.07-5.071c.047-.058.086-.12.131-.178.141-.183.282-.366.409-.557.036-.054.064-.11.1-.165.135-.212.266-.426.383-.648.017-.033.031-.067.048-.1.125-.244.242-.491.345-.745.009-.019.014-.04.022-.059.106-.266.2-.536.283-.811l.018-.069c.077-.27.146-.542.2-.818.014-.068.019-.137.03-.2.04-.231.079-.463.1-.7a9.583 9.583 0 0 0 0-1.84c-.022-.236-.061-.468-.1-.7-.011-.067-.017-.134-.03-.2-.053-.277-.122-.55-.2-.821-.006-.022-.01-.044-.017-.066-.081-.276-.178-.547-.284-.814-.008-.018-.013-.038-.02-.056-.1-.255-.222-.5-.348-.749-.016-.032-.029-.066-.046-.1-.118-.223-.25-.438-.385-.652-.034-.053-.062-.108-.1-.16-.128-.194-.271-.379-.414-.563-.052-.068-.1-.139-.152-.205-.168-.205-.35-.4-.536-.593-.037-.039-.069-.081-.107-.119a9.5 9.5 0 0 0-13.436 0c-.032.032-.059.068-.091.1-.193.2-.379.4-.553.611-.052.064-.1.132-.146.2-.145.187-.289.375-.42.571-.033.051-.06.1-.092.155-.137.215-.27.433-.389.657-.017.032-.03.066-.046.1-.126.245-.244.494-.348.749-.007.018-.012.038-.02.056-.106.267-.2.538-.284.814-.007.022-.011.044-.017.066-.078.27-.147.544-.2.822-.011.06-.016.121-.026.182-.042.238-.081.477-.1.719a9.572 9.572 0 0 0 0 1.839c.023.241.062.479.1.716.011.061.016.124.028.185.053.277.122.55.2.819l.018.069c.081.275.177.545.283.811.008.019.013.04.021.059.1.254.221.5.346.745.017.034.031.068.048.1.118.224.25.44.386.654.033.052.061.107.1.159.128.194.271.379.415.565.052.067.1.137.151.2.168.2.35.4.537.594.037.039.069.08.106.118s.081.07.12.107c.192.187.388.369.593.537.066.054.137.1.205.152.184.143.369.285.562.413.053.035.109.064.162.1.213.135.428.267.651.384.034.018.07.032.1.05.242.124.488.241.741.344.021.008.043.014.065.023.264.1.532.2.8.281.025.008.051.012.077.02.267.076.537.145.811.2.067.013.134.018.2.029.232.04.464.079.7.1a9.428 9.428 0 0 0 1.84 0c.235-.022.466-.061.7-.1.068-.012.137-.017.2-.03.274-.053.543-.121.809-.2.026-.007.053-.012.079-.02.272-.08.539-.175.8-.28l.069-.024c.251-.1.5-.219.737-.343.036-.018.073-.032.109-.051.221-.117.434-.248.646-.382.055-.035.112-.064.166-.1.191-.127.374-.268.557-.409.058-.045.12-.084.178-.131l5.07 5.071a1 1 0 1 0 1.414-1.414zm-12.457-3.622a7.421 7.421 0 1 1 7.424-7.42 7.421 7.421 0 0 1-7.424 7.42z" transform="translate(-298.277 -175.898)"/>
</svg>
