<svg xmlns="http://www.w3.org/2000/svg" width="56.161" height="54.222" viewBox="0 0 56.161 54.222">
    <defs>
        <style>
            .cls-1,.cls-2{fill:none}.cls-1,.cls-2,.cls-3{stroke:#5e6656;stroke-miterlimit:10;stroke-width:3px}.cls-2{stroke-linecap:round}.cls-3{fill:#fff}
        </style>
    </defs>
    <g id="그룹_595" transform="translate(2.076 1.5)">
        <path id="패스_392" d="M238.6 1681.833a10.731 10.731 0 0 1 20.593 0" class="cls-1" transform="translate(-223.294 -1661.315)"/>
        <path id="선_96" d="M0 0L0 7.884" class="cls-2" transform="translate(25.597)"/>
        <path id="선_95" d="M0 0L5.335 5.805" class="cls-2" transform="translate(14.383 3.365)"/>
        <path id="선_97" d="M5.335 0L0 5.805" class="cls-2" transform="translate(31.477 3.365)"/>
        <path id="사각형_715" d="M1.518 0h2.093a1.518 1.518 0 0 1 1.518 1.518v11.957H0V1.518A1.518 1.518 0 0 1 1.518 0z" class="cls-1" transform="rotate(-33.101 18.932 5.626)"/>
        <path id="사각형_718" d="M0 0h5.129v11.956a1.518 1.518 0 0 1-1.518 1.518H1.518A1.518 1.518 0 0 1 0 11.956V0z" class="cls-1" transform="rotate(-146.899 25.675 4.636)"/>
        <rect id="사각형_716" width="39.37" height="31.081" class="cls-3" rx="1.103" transform="translate(6.32 20.141)"/>
        <path id="사각형_717" d="M0 0H12.084V31.081H0z" class="cls-3" transform="translate(19.963 20.141)"/>
    </g>
</svg>
