<svg xmlns="http://www.w3.org/2000/svg" width="36.191" height="29.914" viewBox="0 0 36.191 29.914">
    <defs>
        <style>
            .cls-1{fill:#859985}
        </style>
    </defs>
    <g id="그룹_617">
        <path id="패스_353" d="M33.432 973.835l.711.318c6.383 2.838 13.616 6.055 19.028 11.732 2.457 2.578 6.3 7.576 5.361 12.875a5.8 5.8 0 0 1-5.65 4.807h-.039c-5.434 0-9.677-4.744-11.768-7.657-4.573-6.37-6.393-14.075-8-20.873l-.177-.759a.386.386 0 0 1 .534-.443z" class="cls-1" transform="translate(-32.887 -973.652)"/>
        <path id="패스_355" d="M10.243 12.065l-.288-.129c-2.59-1.151-5.525-2.457-7.721-4.761C1.237 6.129-.322 4.1.059 1.951A2.355 2.355 0 0 1 2.351 0h.016c2.205 0 3.927 1.925 4.775 3.107C9 5.692 9.736 8.819 10.388 11.578l.072.308a.156.156 0 0 1-.217.179z" class="cls-1" transform="rotate(-120 17.225 .123)"/>
    </g>
</svg>
