<svg xmlns="http://www.w3.org/2000/svg" width="14.072" height="15.154" viewBox="0 0 14.072 15.154">
    <defs>
        <style>
            .cls-1{fill:rgba(255,255,255,.5);stroke:#fff;stroke-linejoin:round}
        </style>
    </defs>
    <g id="그룹_596" transform="translate(-464.464 -1021.5)">
        <path id="패스_285" d="M136.417 409.351a1.026 1.026 0 1 1 1.152 0" class="cls-1" transform="translate(334.51 614.526)"/>
        <path id="패스_286" d="M130.195 573.359a1.716 1.716 0 1 1-3.432 0" class="cls-1" transform="translate(343.021 461.079)"/>
        <path id="패스_284" fill="rgba(255,255,255,0.5)" stroke="#fff" stroke-linecap="round" stroke-linejoin="round" d="M69.461 442.817s6.243.153 6.4 0a2.458 2.458 0 0 0 0-1.43c-.123-.47-1.757-.231-2.165-4.467a7.461 7.461 0 0 0-.349-1.689 5 5 0 0 0-.973-1.717 4.1 4.1 0 0 0-1.141-.9 3.854 3.854 0 0 0-.506-.224 5.206 5.206 0 0 0-2.522 0 3.855 3.855 0 0 0-.506.224 4.1 4.1 0 0 0-1.141.9 5 5 0 0 0-.973 1.717 7.457 7.457 0 0 0-.35 1.689c-.409 4.235-2.043 4-2.165 4.467a2.458 2.458 0 0 0 0 1.43c.149.153 6.391 0 6.391 0z" transform="translate(402.039 591.621)"/>
    </g>
</svg>
