<svg xmlns="http://www.w3.org/2000/svg" width="35" height="35" viewBox="0 0 35 35">
    <g>
        <g fill="#5c6754" stroke="#5c6754" opacity="0.7" transform="translate(-1420 -728) translate(1420 728)">
            <circle cx="17.5" cy="17.5" r="17.5" stroke="none"/>
            <circle cx="17.5" cy="17.5" r="17" fill="none"/>
        </g>
        <path fill="#fff" d="M318.013 194.365l-4.557-4.558c.042-.052.077-.108.118-.16.127-.165.254-.329.368-.5.032-.049.057-.1.089-.148.121-.191.239-.383.344-.582l.043-.091c.112-.219.217-.441.31-.67.008-.017.013-.036.02-.053.1-.239.182-.482.254-.729l.016-.062c.069-.243.131-.487.179-.735.013-.061.017-.123.027-.183.036-.208.071-.416.091-.627a8.621 8.621 0 0 0 0-1.654c-.02-.212-.055-.421-.091-.629-.01-.06-.015-.12-.027-.181-.048-.249-.11-.494-.18-.738-.005-.02-.009-.04-.015-.059-.073-.248-.16-.492-.255-.732-.007-.016-.012-.034-.018-.05-.094-.229-.2-.453-.313-.673-.014-.029-.026-.059-.041-.088-.106-.2-.225-.394-.346-.586-.031-.048-.056-.1-.087-.144-.115-.174-.244-.341-.372-.506-.047-.061-.087-.125-.137-.184-.151-.184-.315-.36-.482-.533-.033-.035-.062-.073-.1-.107a8.541 8.541 0 0 0-12.078 0c-.029.029-.053.061-.082.091-.174.178-.341.36-.5.549-.047.057-.085.119-.131.177-.13.168-.26.337-.378.513-.03.046-.054.093-.083.139-.123.193-.243.389-.35.591-.015.029-.027.059-.041.088-.113.22-.219.444-.313.673-.006.016-.011.034-.018.05-.1.24-.182.484-.255.732l-.015.059c-.07.243-.132.489-.181.739-.01.054-.014.109-.023.164-.038.214-.073.429-.094.646a8.606 8.606 0 0 0 0 1.653c.021.217.056.431.093.644.01.055.014.111.025.166.048.249.11.494.179.736l.016.062c.073.247.159.49.254.729l.019.053c.093.228.2.45.311.67l.043.091c.106.2.225.4.347.588.03.047.055.1.086.143.115.174.244.341.373.508.047.06.087.123.136.182.151.184.315.36.483.534.033.035.062.072.1.106s.073.063.108.1c.173.168.349.332.533.483.059.049.123.089.184.137.165.129.332.256.505.371.048.031.1.058.146.088.191.121.385.24.585.345.031.016.063.029.094.045.218.111.439.217.666.309.019.007.039.013.058.021.237.094.478.181.724.253.022.007.046.011.069.018.24.068.483.13.729.178.06.012.12.016.181.026.209.036.417.071.629.091a8.471 8.471 0 0 0 1.654 0c.211-.02.419-.055.627-.09.061-.011.123-.015.183-.027.246-.048.488-.109.727-.178.023-.006.048-.011.071-.018.244-.072.484-.157.721-.252l.062-.022c.226-.093.445-.2.662-.308.032-.016.066-.029.1-.046.2-.105.39-.223.581-.343.049-.031.1-.058.149-.09.172-.114.336-.241.5-.368.052-.04.108-.076.16-.118l4.557 4.558a.9.9 0 1 0 1.271-1.271zm-11.2-3.256a6.671 6.671 0 1 1 6.671-6.672 6.671 6.671 0 0 1-6.668 6.672z" transform="translate(-1420 -728) translate(1129.724 559.102)"/>
    </g>
</svg>
