<svg xmlns="http://www.w3.org/2000/svg" width="97.619" height="80.689" viewBox="0 0 97.619 80.689">
    <defs>
        <style>
            .cls-1{fill:#859985}
        </style>
    </defs>
    <g id="그룹_566" transform="translate(-907.666 -3906.56)">
        <path id="패스_353" d="M100.975 973.893l-1.917.857c-17.216 7.65-36.727 16.331-51.323 31.65-6.628 6.953-16.985 20.435-14.459 34.728a15.653 15.653 0 0 0 15.239 12.965h.1c14.657 0 26.1-12.8 31.741-20.654 12.334-17.182 17.243-37.966 21.576-56.3l.478-2.047a1.04 1.04 0 0 0-1.435-1.199z" class="cls-1" transform="translate(902.84 2933.16)"/>
        <path id="패스_355" d="M60.517 973.838l-.778.348c-6.986 3.106-14.9 6.627-20.827 12.842-2.69 2.821-6.893 8.293-5.868 14.093a6.352 6.352 0 0 0 6.184 5.261h.042c5.948 0 10.592-5.193 12.88-8.382 5.005-6.973 7-15.407 8.756-22.848l.194-.831a.422.422 0 0 0-.583-.483z" class="cls-1" transform="rotate(-60 3031.291 1694.822)"/>
    </g>
</svg>
