<svg xmlns="http://www.w3.org/2000/svg" width="37.999" height="41.04" viewBox="0 0 37.999 41.04">
    <defs>
        <style>
            .cls-2{fill:#f2f2f2;stroke:#5e6656;stroke-linecap:round;stroke-miterlimit:10;stroke-width:3px}
        </style>
    </defs>
    <g id="그룹_366" opacity="0.7" transform="translate(1.499 1.503)">
        <path id="패스_84" d="M3378.3 913.77h-.019c-1.98-.025-3.936.17-5.908.286-6.72.392-10.529-9.464-11.481-18.873a9.729 9.729 0 0 1 1.108-6.257 6.822 6.822 0 0 1 3.547-2.679 14.866 14.866 0 0 1 3.973-.682 12.66 12.66 0 0 1 4.674.8 14.385 14.385 0 0 0 4.083.978h.032a13.709 13.709 0 0 0 4.008-.944 12.994 12.994 0 0 1 4.56-.842 15.42 15.42 0 0 1 3.921.6 7.025 7.025 0 0 1 3.608 2.46 8.962 8.962 0 0 1 1.377 5.862c-.014.235-.033.47-.057.7-.952 9.409-4.76 19.265-11.48 18.873-1.979-.112-3.959-.252-5.946-.282z" class="cls-2" transform="translate(-3360.811 -876.031)"/>
        <path id="패스_85" d="M3390.653 880.561s1.008-7.728-2.521-10.024" class="cls-2" transform="translate(-3373.152 -869.251)"/>
        <path id="패스_86" d="M3403.17 868.193l-.258.033a19.177 19.177 0 0 0-7.214 1.917c-1.041.592-2.767 1.832-2.959 3.636v.013a1.941 1.941 0 0 0 1.4 2.047c1.726.5 3.522-.6 4.465-1.325a19.2 19.2 0 0 0 4.569-5.9l.13-.225a.129.129 0 0 0-.133-.196zm-.848.7z" class="cls-2" transform="translate(-3375.228 -868.192)"/>
    </g>
</svg>
