<svg xmlns="http://www.w3.org/2000/svg" width="48" height="39" viewBox="0 0 48 39">
    <path fill="#5c6754" d="M38.463 18.086L20.8.534a1.959 1.959 0 0 0-.28-.226c-.029-.018-.062-.031-.092-.049A2 2 0 0 0 20.2.14c-.036-.016-.08-.025-.122-.04a1.841 1.841 0 0 0-.215-.066 1.832 1.832 0 0 0-.727 0 1.833 1.833 0 0 0-.214.066c-.042.013-.087.022-.127.038a2 2 0 0 0-.224.119c-.029.018-.062.031-.092.049a1.958 1.958 0 0 0-.279.228L.537 18.086a1.816 1.816 0 0 0 0 2.578 1.842 1.842 0 0 0 2.593 0L17.667 6.221v39.956a1.833 1.833 0 0 0 3.666 0V6.221L35.87 20.664a1.828 1.828 0 1 0 2.593-2.578z" transform="rotate(90 24 24)"/>
</svg>
