<svg xmlns="http://www.w3.org/2000/svg" width="319.751" height="315.33">
    <defs>
        <style>
            .cls-1{fill:#ececec}.cls-2{fill:#4d5548}
        </style>
    </defs>
    <g id="그룹_949" data-name="그룹 949" transform="translate(-554.715 -2948.994)">
        <g id="그룹_1005" data-name="그룹 1005" transform="translate(-94.225 1147.774)">
            <g id="그룹_1004" data-name="그룹 1004" transform="translate(96 -108.86)">
                <path id="패스_771" data-name="패스 771" class="cls-2" d="M607.72 1959.39a15.14 15.14 0 0 1-9.74 9.43q-7 2.31-17.4-1.74t-14.06-10.59a15.42 15.42 0 0 1-.87-13.67 15.16 15.16 0 0 1 4.47-6.64 16.263 16.263 0 0 1 5.54-2.94l.23-.6c-1-.22-2.08-.48-3.23-.79a28 28 0 0 1-3.22-1l-16.5-6.4 3.66-9.45 58.67 22.75-3 7.65-5.92-.74-.18.44a16.912 16.912 0 0 1 2.61 6.2 14.421 14.421 0 0 1-1.06 8.09zm-6.6-5.66q1.95-5-.25-8.26t-8.25-5.65l-1.2-.47q-6.52-2.53-10.78-1.9t-6.36 6a7.6 7.6 0 0 0 1.09 8q2.8 3.55 9.12 6t10.57 1.64a7.84 7.84 0 0 0 6.06-5.37z" transform="translate(0 34.64)"/>
                <path id="패스_772" data-name="패스 772" class="cls-2" d="m599.46 1993.59-43.27-5.42 1.26-10.06 43.27 5.42zm17.32-2.94a6.79 6.79 0 0 1-1.65 3.77q-1.36 1.53-4.32 1.16t-3.94-2.2a7.13 7.13 0 0 1 1-7.86q1.39-1.49 4.35-1.11c2 .24 3.28 1 3.91 2.15a6.73 6.73 0 0 1 .65 4.09z" transform="translate(0 34.64)"/>
                <path id="패스_773" data-name="패스 773" class="cls-2" d="M555.61 2026.06q-.81-9.3 4.1-15.17t16.45-6.87q8-.68 13.26 1.57a16.921 16.921 0 0 1 8 6.79 23.9 23.9 0 0 1 3.3 10.61 30 30 0 0 1-.18 7.33 26.437 26.437 0 0 1-1.45 5.66l-8.19-2.29c.49-1.77.9-3.5 1.21-5.19a17.9 17.9 0 0 0 .27-4.79q-.9-10.57-15.26-9.35-7 .6-10.27 3.59a9.21 9.21 0 0 0-2.86 8 21.817 21.817 0 0 0 1.44 6.38 23.783 23.783 0 0 0 2.86 5.12l-8.74.75a18 18 0 0 1-2.66-5.18 30.85 30.85 0 0 1-1.28-6.96z" transform="translate(0 34.64)"/>
                <path id="패스_774" data-name="패스 774" class="cls-2" d="m622.63 2045.19-27 10.73c-1.26.49-2.63 1-4.14 1.47s-2.94.93-4.27 1.35l.09.22 4 1a38.657 38.657 0 0 1 4.07 1.33l17.54 6.88 4.26 10.69-23.95-9.27L577 2096l-4.38-11 12.38-19.41-5.76-3.17-13.46 5.35-3.71-9.34 56.82-22.59z" transform="translate(0 34.64)"/>
                <path id="패스_775" data-name="패스 775" class="cls-2" d="m616.68 2078 7 8.53-13.56 22.32a41.654 41.654 0 0 1-2.67 4 38.33 38.33 0 0 1-3 3.5l.2.24a39.922 39.922 0 0 1 4.07-2.07c1.5-.68 3-1.29 4.56-1.86l24.36-9.1 6.93 8.47-50 16.87a23.359 23.359 0 0 1-12.06 1.07 16.22 16.22 0 0 1-9.41-6 26.008 26.008 0 0 1-2.06-2.84c-.52-.85-.94-1.6-1.26-2.24l6.24-5.09c.28.52.65 1.14 1.1 1.85a18.821 18.821 0 0 0 1.53 2.13 8.09 8.09 0 0 0 5.48 3.21 14.6 14.6 0 0 0 6.45-.81l3.56-1.24z" transform="translate(0 34.64)"/>
                <path id="패스_776" data-name="패스 776" class="cls-2" d="m681 2143.24-9.24-5.06-17.27 31.54-8.89-4.86 17.27-31.55-6.14-3.36 2.31-4.24 7.54.82 1.43-2.61q4-7.34 9.07-8.29t11.14 2.38a29.787 29.787 0 0 1 4.79 3.23 26.752 26.752 0 0 1 3.21 3.09l-5.89 5.4c-.66-.67-1.43-1.38-2.28-2.12a16.212 16.212 0 0 0-3-2 5 5 0 0 0-4.65-.48 8.691 8.691 0 0 0-3.65 3.91l-1.35 2.48 9.24 5.06z" transform="translate(0 34.64)"/>
                <path id="패스_777" data-name="패스 777" class="cls-2" d="M706.35 2142.1q8.19 2 11.57 6.67t1.53 12.14l-7 28.44-6.95-1.71-.51-6.35-.31-.08a19 19 0 0 1-7 3.62 18.35 18.35 0 0 1-8.68-.44 14.44 14.44 0 0 1-8.66-5.53q-3-4.12-1.31-10.85c1.08-4.37 3.5-7.26 7.23-8.66s8.9-1.43 15.48-.08l7.4 1.58.52-2.12c.67-2.7.49-4.79-.53-6.25a8.212 8.212 0 0 0-5.05-3.07 21.182 21.182 0 0 0-6.35-.611 47.126 47.126 0 0 0-6.37.79l-1.43-7.65a33.571 33.571 0 0 1 7.8-.89 35.087 35.087 0 0 1 8.62 1.051zm1.25 24.84-5.2-1.11q-6.54-1.38-9.53 0a6.67 6.67 0 0 0-3.82 4.73q-.75 3.06.69 4.77a7.891 7.891 0 0 0 4.33 2.44 11.411 11.411 0 0 0 7.88-.67q3.56-1.74 4.76-6.58z" transform="translate(0 34.64)"/>
                <path id="패스_778" data-name="패스 778" class="cls-2" d="M756.11 2145.67h2.34q1 .06 2.1.21l-.58 9.44a19.643 19.643 0 0 0-2-.21 16.374 16.374 0 0 0-2-.06 13.882 13.882 0 0 0-6 1.52 10.767 10.767 0 0 0-4.41 4.21 12.919 12.919 0 0 0-1.5 7.06l.74 22.6-10.13.33-1.43-43.59 7.8-.25 1.69 7.51h.49a18.172 18.172 0 0 1 5.11-6.08 12.871 12.871 0 0 1 7.78-2.69z" transform="translate(0 34.64)"/>
                <path id="패스_779" data-name="패스 779" class="cls-2" d="M811.85 2127.5q6.81-2.94 11.73-1t8.31 9.73l11.32 26-9.3 4-10.55-24.28q-3.89-8.93-10.67-6-4.87 2.11-5.56 6.19t1.94 10.12l9 20.81-9.3 4-10.51-24.07q-3.87-8.92-10.74-5.95-5.1 2.22-5.47 6.59t2.47 10.95l8.49 19.55-9.3 4-17.37-40 7.16-3.11 3.61 4.67.51-.23a12 12 0 0 1 3-6.72 17.238 17.238 0 0 1 6-4.32 18.9 18.9 0 0 1 8.2-1.81 11 11 0 0 1 6.74 2.68l.74-.31a11.91 11.91 0 0 1 3.11-7 18.622 18.622 0 0 1 6.44-4.49z" transform="translate(0 34.64)"/>
            </g>
        </g>
        <g id="그룹_1007" data-name="그룹 1007" transform="translate(1.385 1039.774)">
            <g id="그룹_1006" data-name="그룹 1006">
                <path id="패스_780" data-name="패스 780" class="cls-2" d="M831.86 2074.49c-27.63 27.63-58.11 33.3-85 25.25-1.18-.35-2.35-.73-3.52-1.11-13.85-4.81-26.65-13.24-37.55-24.14-32.76-32.76-38.52-68.06 4.66-111.24a106.73 106.73 0 0 1 56.05-29.53l2.79-.47c32.41-5.23 65.3 4.27 85.17 24.17 32.72 32.76 20.54 73.85-22.6 117.07z" transform="translate(0 34.64)"/>
                <path id="패스_781" data-name="패스 781" class="cls-2" d="M733.13 2103.2a90.09 90.09 0 0 1-35.07-173.08 3.17 3.17 0 1 1 2.47 5.83 83.8 83.8 0 1 0 32.6-6.58H730v-3.9l.33-.69a89.754 89.754 0 0 1 16.67-23.43l.16-.18a2.337 2.337 0 0 1 .4-.37 90.23 90.23 0 0 1 56.94-26l3.16-.22.29 4a36.33 36.33 0 0 1-36.16 36.42h-.06a36.189 36.189 0 0 1-22-7.41 83.522 83.522 0 0 0-11.46 15.55 90.08 90.08 0 0 1-5.18 180zm0-177 21.18-23.08a29.9 29.9 0 0 0 47.21-21.7 84 84 0 0 0-47.21 21.68z" transform="translate(0 34.64)"/>
            </g>
            <path id="패스_783" data-name="패스 783" class="cls-1" d="M752.24 2101.16a90.09 90.09 0 0 0 21.33-168.53l-11.31 2a83.75 83.75 0 0 1-24 162.11z" transform="translate(0 34.64)"/>
        </g>
    </g>
</svg>
