<svg xmlns="http://www.w3.org/2000/svg" width="27.366" height="23.062" viewBox="0 0 27.366 23.062">
    <defs>
        <style>
            .cls-1{fill:#005600}
        </style>
    </defs>
    <g id="그룹_41" transform="translate(-1842.092 -177.593)">
        <path id="패스_70" d="M1868.773 183.678a2.936 2.936 0 0 0-2.343-1.224h-15.564a.685.685 0 1 0 0 1.369h15.564a1.566 1.566 0 0 1 1.178.591 1.868 1.868 0 0 1 .483 1.044c-.172.642-1.652 5.631-1.961 6.552a1.894 1.894 0 0 1-1.648 1.087h-11.871a1.778 1.778 0 0 1-1.9-1.5c-.32-1.1-3.313-9.962-3.929-11.592a3.519 3.519 0 0 0-3.4-2.414h-.6a.685.685 0 0 0 0 1.371h.6a2.144 2.144 0 0 1 2.119 1.528c.595 1.572 3.6 10.466 3.9 11.491a3.135 3.135 0 0 0 3.219 2.486h11.871a3.275 3.275 0 0 0 2.948-2.023c.313-.932 1.81-5.982 1.983-6.632a2.728 2.728 0 0 0-.649-2.134z" class="cls-1"/>
        <path id="패스_71" d="M1851.692 192.08a2.514 2.514 0 1 0 2.513 2.513 2.517 2.517 0 0 0-2.513-2.513zm0 3.656a1.143 1.143 0 1 1 1.144-1.143 1.145 1.145 0 0 1-1.144 1.143z" class="cls-1" transform="translate(1.735 3.548)"/>
        <path id="패스_72" d="M1859.916 192.08a2.514 2.514 0 1 0 2.514 2.513 2.517 2.517 0 0 0-2.514-2.513zm0 3.656a1.143 1.143 0 1 1 1.144-1.143 1.145 1.145 0 0 1-1.144 1.143z" class="cls-1" transform="translate(3.75 3.548)"/>
    </g>
</svg>
