<svg xmlns="http://www.w3.org/2000/svg" width="110" height="109.084" viewBox="0 0 110 109.084">
    <defs>
        <style>
            .cls-1{fill:#5c6456}.cls-4{fill:#586751}
        </style>
    </defs>
    <g id="그룹_782" transform="translate(-340 -103.708)">
        <path id="패스_592" d="M471.028 372.451c-10.527 10.527-22.14 12.688-32.4 9.621-.447-.133-.893-.278-1.34-.422a38.187 38.187 0 0 1-14.305-9.2c-12.482-12.482-14.679-25.931 1.775-42.385a40.652 40.652 0 0 1 21.355-11.251c.362-.06.712-.121 1.062-.181 12.35-1.992 24.88 1.63 32.449 9.211 12.482 12.483 7.858 28.141-8.596 44.607z" class="cls-1" transform="translate(-36.735 -192.555)"/>
        <path id="패스_593" d="M352.85 257.127a34.329 34.329 0 0 1-13.361-65.95 1.207 1.207 0 1 1 .941 2.224 31.928 31.928 0 1 0 12.42-2.507h-1.207v-1.489l.125-.26a34.231 34.231 0 0 1 6.371-8.928c.019-.024.038-.047.059-.07a1.19 1.19 0 0 1 .153-.142 34.391 34.391 0 0 1 21.7-9.918l1.2-.087.112 1.535a13.807 13.807 0 0 1-22.174 11.073 31.866 31.866 0 0 0-4.364 5.928 34.324 34.324 0 0 1-1.974 68.591zm0-67.448zm8.07-8.793a11.4 11.4 0 0 0 17.988-8.268 31.987 31.987 0 0 0-17.988 8.268z" class="cls-1" transform="translate(43.827 -66.292)"/>
        <path id="패스_594" fill="#fff" d="M587.545 321.756c-.35.06-.7.121-1.062.181a32.811 32.811 0 0 1-8.825 62.834c.447.145.893.29 1.34.422a33.4 33.4 0 0 0 8.547-63.438z" transform="translate(-177.107 -195.677)"/>
        <g id="그룹_781" transform="translate(340 128.738)">
            <path id="패스_596" d="M183.591 353.333a4.62 4.62 0 0 1-2.968 2.873 9.922 9.922 0 0 1-9.588-3.758 4.691 4.691 0 0 1-.264-4.165 4.6 4.6 0 0 1 1.363-2.023 4.973 4.973 0 0 1 1.687-.9l.072-.182c-.306-.066-.637-.146-.985-.238a8.839 8.839 0 0 1-.982-.315l-5.029-1.95 1.116-2.881 17.877 6.933-.9 2.332-1.806-.227-.054.136a5.108 5.108 0 0 1 .795 1.887 4.413 4.413 0 0 1-.334 2.478zm-2.012-1.727a2.609 2.609 0 0 0-.077-2.515 5.394 5.394 0 0 0-2.514-1.724l-.365-.141a6.691 6.691 0 0 0-3.287-.578 2.531 2.531 0 0 0-1.936 1.84 2.315 2.315 0 0 0 .331 2.429 6.418 6.418 0 0 0 2.778 1.827 6.059 6.059 0 0 0 3.223.5 2.394 2.394 0 0 0 1.846-1.638z" class="cls-4" transform="translate(-166.895 -339.797)"/>
            <path id="패스_597" d="M186.807 475.035l-13.186-1.651.384-3.065 13.186 1.651zm5.277-.9a2.068 2.068 0 0 1-.5 1.148 1.428 1.428 0 0 1-1.317.354 1.462 1.462 0 0 1-1.2-.67 2.17 2.17 0 0 1 .3-2.4 1.478 1.478 0 0 1 1.327-.34 1.441 1.441 0 0 1 1.191.656 2.043 2.043 0 0 1 .199 1.256z" class="cls-4" transform="translate(-172.63 -451.079)"/>
            <path id="패스_598" d="M172.223 530.311a6.1 6.1 0 0 1 1.252-4.623q1.493-1.79 5.012-2.093a8.411 8.411 0 0 1 4.041.479 5.17 5.17 0 0 1 2.442 2.067 7.317 7.317 0 0 1 1 3.236 9.223 9.223 0 0 1-.055 2.231 8.179 8.179 0 0 1-.442 1.725l-2.5-.7c.15-.539.274-1.066.368-1.583a5.463 5.463 0 0 0 .084-1.459q-.276-3.225-4.651-2.849a5.249 5.249 0 0 0-3.129 1.095 2.8 2.8 0 0 0-.872 2.45 6.625 6.625 0 0 0 .439 1.943 7.176 7.176 0 0 0 .871 1.561l-2.662.229a5.534 5.534 0 0 1-.812-1.578 9.58 9.58 0 0 1-.386-2.131z" class="cls-4" transform="translate(-171.408 -496.46)"/>
            <path id="패스_599" d="M204.266 592.5l-8.225 3.27c-.382.15-.8.3-1.26.449s-.895.284-1.3.41l.027.069c.352.089.753.192 1.206.311a11.1 11.1 0 0 1 1.241.4l5.346 2.1 1.3 3.258-7.3-2.825-4.929 8.058-1.332-3.351 3.764-5.929-1.754-.964-4.1 1.629-1.13-2.847 17.317-6.884z" class="cls-4" transform="translate(-183.028 -552.824)"/>
            <path id="패스_600" d="M215.913 676.82l2.124 2.6-4.134 6.8a12.67 12.67 0 0 1-.812 1.234 11.21 11.21 0 0 1-.917 1.066l.061.075a12.237 12.237 0 0 1 1.24-.632q.683-.308 1.39-.566l7.424-2.772 2.109 2.582-15.242 5.139a7.106 7.106 0 0 1-3.675.327 4.952 4.952 0 0 1-2.866-1.823 8.164 8.164 0 0 1-.628-.865c-.159-.26-.287-.486-.383-.683l1.9-1.551c.087.159.2.348.335.565a6.02 6.02 0 0 0 .467.648 2.476 2.476 0 0 0 1.669.979 4.481 4.481 0 0 0 1.968-.246l1.083-.378z" class="cls-4" transform="translate(-196.487 -627.139)"/>
            <path id="패스_601" d="M369.238 762.637l-2.816-1.543-5.264 9.614-2.709-1.483 5.263-9.614-1.871-1.025.706-1.29 2.3.249.436-.8q1.224-2.236 2.766-2.525a5.1 5.1 0 0 1 3.392.725 8.923 8.923 0 0 1 1.461.982 8.372 8.372 0 0 1 .98.941l-1.8 1.644c-.2-.2-.435-.42-.694-.646a5.083 5.083 0 0 0-.9-.62 1.519 1.519 0 0 0-1.417-.147 2.64 2.64 0 0 0-1.113 1.194l-.411.753 2.816 1.543z" class="cls-4" transform="translate(-330.212 -693.08)"/>
            <path id="패스_602" d="M434.765 807.45a5.921 5.921 0 0 1 3.527 2.032 4.305 4.305 0 0 1 .464 3.7l-2.137 8.665-2.119-.522-.154-1.932-.1-.024a5.837 5.837 0 0 1-2.139 1.1 5.651 5.651 0 0 1-2.644-.134 4.408 4.408 0 0 1-2.64-1.686 3.874 3.874 0 0 1-.4-3.306 3.5 3.5 0 0 1 2.2-2.638 8.816 8.816 0 0 1 4.716-.024l2.255.48.158-.643a2.318 2.318 0 0 0-.16-1.908 2.513 2.513 0 0 0-1.538-.935 6.517 6.517 0 0 0-1.936-.187 14.6 14.6 0 0 0-1.94.241l-.436-2.329a10.122 10.122 0 0 1 2.378-.272 10.735 10.735 0 0 1 2.645.322zm.381 7.569l-1.582-.339a4.961 4.961 0 0 0-2.9 0 2.031 2.031 0 0 0-1.164 1.442 1.577 1.577 0 0 0 .209 1.453 2.406 2.406 0 0 0 1.319.742 3.462 3.462 0 0 0 2.4-.2 2.81 2.81 0 0 0 1.452-2z" class="cls-4" transform="translate(-388.016 -738.239)"/>
            <path id="패스_603" d="M546.7 816.66c.212-.007.45 0 .712.014a6.277 6.277 0 0 1 .64.066l-.176 2.875c-.164-.026-.365-.049-.6-.065a5.644 5.644 0 0 0-.6-.018 4.25 4.25 0 0 0-1.825.464 3.274 3.274 0 0 0-1.344 1.283 3.925 3.925 0 0 0-.456 2.15l.225 6.885-3.088.1-.435-13.283 2.377-.078.516 2.289.147-.005a5.573 5.573 0 0 1 1.557-1.854 3.957 3.957 0 0 1 2.35-.823z" class="cls-4" transform="translate(-484.787 -746.362)"/>
            <path id="패스_604" d="M621.923 776.026a4.589 4.589 0 0 1 3.574-.3 5.151 5.151 0 0 1 2.531 2.965l3.448 7.938-2.833 1.231-3.215-7.4q-1.181-2.72-3.25-1.821a2.54 2.54 0 0 0-1.694 1.885 5.634 5.634 0 0 0 .591 3.085l2.755 6.341-2.83 1.236-3.215-7.4q-1.181-2.72-3.274-1.812a2.41 2.41 0 0 0-1.667 2.007 7.164 7.164 0 0 0 .755 3.336l2.588 5.959-2.834 1.231-5.294-12.189 2.181-.948 1.1 1.422.156-.07a3.674 3.674 0 0 1 .929-2.047 5.28 5.28 0 0 1 1.834-1.317 5.757 5.757 0 0 1 2.5-.551 3.332 3.332 0 0 1 2.052.818l.226-.1a3.626 3.626 0 0 1 .948-2.124 5.7 5.7 0 0 1 1.938-1.375z" class="cls-4" transform="translate(-543.024 -711.263)"/>
        </g>
    </g>
</svg>
