<svg xmlns="http://www.w3.org/2000/svg" id="구성_요소_1_1" width="105.671" height="109.412" viewBox="0 0 105.671 109.412">
    <defs>
        <style>
            .cls-2{fill:#5e6656}.cls-4,.cls-5{fill:#5c6754}.cls-5{stroke:#1a1311;stroke-miterlimit:10}
        </style>
    </defs>
    <g id="그룹_611" opacity="0.7" transform="translate(31.961 27.483)">
        <path id="패스_353" d="M61.931 973.84l-.818.365c-7.344 3.265-15.666 6.966-21.892 13.5-2.827 2.966-7.245 8.717-6.168 14.814a6.677 6.677 0 0 0 6.5 5.531h.047c6.252 0 11.134-5.458 13.539-8.81 5.261-7.329 7.355-16.195 9.2-24.016l.2-.873a.444.444 0 0 0-.608-.511z" class="cls-2" transform="translate(-20.917 -973.629)"/>
        <path id="패스_355" d="M11.786.016l-.332.148C8.474 1.489 5.1 2.991 2.57 5.642 1.423 6.846-.37 9.18.067 11.654A2.709 2.709 0 0 0 2.705 13.9h.018c2.537 0 4.518-2.215 5.494-3.575C10.352 7.348 11.2 3.751 11.952.577l.083-.354a.18.18 0 0 0-.249-.207z" class="cls-2" transform="rotate(-60 9.03 5.213)"/>
    </g>
    <g id="그룹_610" opacity="0.8">
        <g id="그룹_603">
            <path id="패스_381" d="M252.063 98.981H250.8v-30.35a4.6 4.6 0 0 0-4.581-4.581h-51.27a4.818 4.818 0 0 0-3.283 1.3l-14.618 13.627a4.951 4.951 0 0 0-1.527 3.512v16.492h-2.405a13.376 13.376 0 0 0-13.362 13.362V160.1a13.376 13.376 0 0 0 13.362 13.362h78.948a13.376 13.376 0 0 0 13.361-13.362v-47.758a13.376 13.376 0 0 0-13.362-13.361zM191.9 70.349l.038 7.9a1.067 1.067 0 0 1-1.069 1.069h-8.59zm-12.56 12.789h11.529a4.9 4.9 0 0 0 4.887-4.887l-.038-10.384h50.507a.766.766 0 0 1 .763.763v52.835l-25.272 19.661-6.719 5.192a3.9 3.9 0 0 1-4.772.038l-6.757-5.23-24.127-18.744zm82.267 76.962a9.548 9.548 0 0 1-9.544 9.544h-78.947a9.547 9.547 0 0 1-9.544-9.544v-47.758a9.547 9.547 0 0 1 9.544-9.544h2.405V119.4l-5.383-4.161a1.905 1.905 0 1 0-2.329 3.016l7.712 5.994.763.573 24.852 19.317 6.757 5.23a7.679 7.679 0 0 0 4.7 1.6 7.787 7.787 0 0 0 4.734-1.6l6.719-5.23 25.921-20.157.076-.076.764-.573 6.566-5.077a1.905 1.905 0 1 0-2.329-3.016l-4.238 3.283V102.8h1.26a9.548 9.548 0 0 1 9.544 9.544z" class="cls-4" transform="translate(-159.754 -64.05)"/>
        </g>
        <g id="그룹_604" transform="translate(17.687 36.847)"/>
        <g id="그룹_605" transform="translate(34.076 1.913)"/>
        <g id="그룹_606" transform="translate(17.668 17.183)"/>
        <g id="그룹_607" transform="translate(42.539 78.574)"/>
        <g id="그룹_608" transform="translate(8.205 73.267)">
            <path id="패스_386" d="M163.815 102.819a1.91 1.91 0 0 1-1.2-3.394L182.1 83.67a1.908 1.908 0 0 1 2.4 2.966l-19.493 15.755a1.906 1.906 0 0 1-1.192.428z" class="cls-4" transform="translate(-161.903 -83.242)"/>
        </g>
        <g id="그룹_609" transform="translate(73.425 73.267)">
            <path id="패스_387" d="M200.391 102.819a1.891 1.891 0 0 1-1.2-.428L179.7 86.636a1.908 1.908 0 0 1 2.4-2.966l19.5 15.755a1.91 1.91 0 0 1-1.2 3.394z" class="cls-4" transform="translate(-178.987 -83.242)"/>
        </g>
    </g>
</svg>
