<svg xmlns="http://www.w3.org/2000/svg" width="72.36" height="77.848" viewBox="0 0 72.36 77.848">
    <defs>
        <style>
            .cls-2,.cls-3{fill:#4c5344}.cls-3{opacity:.9}
        </style>
    </defs>
    <g id="그룹_615" transform="translate(-188.713 -219.541)">
        <g id="그룹_614" opacity="0.7" transform="translate(188.713 219.541)">
            <path id="패스_388" d="M260.28 249.055l-3.441-3.695a2.962 2.962 0 0 0-4.188-.152l-5.024 4.677v-13.713a3.973 3.973 0 0 0-1.153-2.811l-12.456-12.629a4.036 4.036 0 0 0-2.852-1.192h-38.45a4.007 4.007 0 0 0-4 4v69.843a4.007 4.007 0 0 0 4 4h50.909a4.007 4.007 0 0 0 4-4v-28.5l12.506-11.637a2.973 2.973 0 0 0 .149-4.191zm-9.34 1.8l.585-.544 3.554 3.554-.585.544zm3.115 3.964l-23.095 21.5-8.05 4.615 4.68-8.313 22.91-21.356zm-11.117-20.789h-8.928a.873.873 0 0 1-.872-.872V224.1zm1.7 59.356a1.015 1.015 0 0 1-1.016 1.016h-50.906a1.017 1.017 0 0 1-1.016-1.016v-69.843a1.019 1.019 0 0 1 1.016-1.016h37.435v10.63a3.863 3.863 0 0 0 3.859 3.859h10.63v15.649l-19.077 17.76a2.894 2.894 0 0 0-.568.72l-4.686 8.322a2.959 2.959 0 0 0 4.044 4.029l8.092-4.588a3.171 3.171 0 0 0 .55-.4l11.643-10.843zm11.533-40.539l-3.554-3.554 2.037-1.9 3.441 3.665z" class="cls-2" transform="translate(-188.713 -219.541)"/>
            <path id="패스_389" d="M196.108 229.1h19.066a1.12 1.12 0 1 0 0-2.24h-19.066a1.12 1.12 0 1 0 0 2.24z" class="cls-2" transform="translate(-176.245 -205.005)"/>
            <path id="패스_390" d="M194.179 231.84h29.108a.747.747 0 1 0 0-1.493h-29.108a.747.747 0 1 0 0 1.493z" class="cls-2" transform="translate(-179.337 -198.07)"/>
            <path id="패스_391" d="M224.033 233.495a.747.747 0 0 0-.747-.747h-29.107a.747.747 0 1 0 0 1.493h29.108a.747.747 0 0 0 .746-.746z" class="cls-2" transform="translate(-179.337 -193.3)"/>
        </g>
        <path id="패스_392" d="M191.607 230.476c.3.361.588.747.869 1.147s.556.806.821 1.228l-.248-.045c.29-.352.588-.678.884-1.019.3-.32.6-.651.911-.956s.615-.609.932-.9a12.118 12.118 0 0 1 .971-.8c-.266.415-.544.8-.827 1.174s-.567.735-.86 1.081-.588.681-.884 1.019-.6.654-.911.959l-.143.143-.1-.185q-.376-.676-.729-1.383c-.241-.471-.471-.955-.686-1.463z" class="cls-3" transform="translate(5.75 19.057)"/>
        <path id="패스_393" d="M191.607 232.877c.3.361.588.747.869 1.147s.556.806.821 1.228l-.248-.042c.29-.355.588-.681.884-1.019s.6-.654.911-.959.615-.609.932-.9a12.128 12.128 0 0 1 .971-.8c-.266.415-.544.8-.827 1.174s-.567.735-.86 1.081-.588.681-.884 1.019-.6.654-.911.959l-.143.143-.1-.185c-.251-.448-.493-.911-.729-1.383s-.471-.955-.686-1.463z" class="cls-3" transform="translate(5.75 23.827)"/>
    </g>
</svg>
