<svg xmlns="http://www.w3.org/2000/svg" id="구성_요소_10_2" width="152" height="152" viewBox="0 0 152 152">
    <defs>
        <style>
            .cls-2{fill:rgba(126,131,120,.8)}
        </style>
    </defs>
    <circle id="타원_343" cx="76" cy="76" r="76" fill="#e9e9e9"/>
    <g id="그룹_626" transform="translate(-98.249 -230)">
        <path id="패스_414" d="M235.143 350.674a.591.591 0 0 0-.809.861 10.268 10.268 0 0 1 3.231 7.982.59.59 0 0 0 .562.618h.029a.591.591 0 0 0 .589-.563 11.451 11.451 0 0 0-3.602-8.898z" class="cls-2" transform="translate(-45.002 -32.151)"/>
        <path id="패스_415" d="M231.217 354.975a.59.59 0 1 0-.7.951 5.7 5.7 0 0 1 2.278 5.218.591.591 0 0 0 .52.653.525.525 0 0 0 .067 0 .59.59 0 0 0 .586-.524 6.883 6.883 0 0 0-2.751-6.298z" class="cls-2" transform="translate(-43.417 -33.93)"/>
        <path id="패스_416" d="M223.31 307.144c-1-1.229-3.284-1.237-5.9-.694a58.006 58.006 0 0 0 5.819-3.1c.745-.634.748-1.819.007-3.02-.638-1.035-1.816-1.94-2.9-1.485-.684.289-4.027 2.552-7.46 4.927a4.2 4.2 0 0 0 1.1-3.821c-.927-2.925-2.311-3.211-3.055-3.119a1.6 1.6 0 0 0-1.394 1.1 23.857 23.857 0 0 1-2.808 6.137 34.926 34.926 0 0 1-2.719 2.755c-1.747-2.919-4.4-5.576-8.861-4.026a25.408 25.408 0 0 0-3.106 1.4 12.336 12.336 0 0 0 1.667-7.84 9.694 9.694 0 0 0-3.008-5.266 20.744 20.744 0 0 0-4.394-3.038 17.494 17.494 0 0 0-6.044-1.675 17.421 17.421 0 0 1-4.392-.9 29.347 29.347 0 0 0 1.813-3.566 3.115 3.115 0 0 0 .647.824 6.143 6.143 0 0 0 4.188 1.383 11.715 11.715 0 0 0 2.32-.246c3.451-.707 6.357-2.661 8.944-4.4l.269-.181a.758.758 0 0 0-.177-1.36l-.315-.107c-2.934-1-6.255-2.126-9.784-1.9a9.207 9.207 0 0 0-4.767 1.511 7.7 7.7 0 0 0-.749-5.151.591.591 0 0 0-1.013.608c2.231 3.717-1.353 10.239-2.452 12.073a18.2 18.2 0 0 1-3.655-3.087 17.056 17.056 0 0 0-5.213-3.741 19.988 19.988 0 0 0-5.208-1.515 9.536 9.536 0 0 0-6.069 1.189c-.008 0-.011.012-.019.017s-.015 0-.022.01a13.218 13.218 0 0 0-3.439 3.508.59.59 0 1 0 .981.656 12.062 12.062 0 0 1 3.113-3.18 8.342 8.342 0 0 1 5.286-1.03 18.777 18.777 0 0 1 4.887 1.422 15.846 15.846 0 0 1 4.836 3.469 19.364 19.364 0 0 0 4.411 3.616l.081.037c.015.007.031.011.047.017h.005a18.434 18.434 0 0 0 5.349 1.2 16.274 16.274 0 0 1 5.612 1.554 19.529 19.529 0 0 1 4.13 2.857 8.495 8.495 0 0 1 2.635 4.58 11.158 11.158 0 0 1-1.664 7.3c-.058.1-.378.508-.569.751-.292.37-.475.6-.564.749a.574.574 0 0 0-.046.126 221.311 221.311 0 0 0-20.644 13.8 58.321 58.321 0 0 0 1.984-10.386c.031-.312.057-.626.073-.91a12.342 12.342 0 0 0-1.914-8.075 9.7 9.7 0 0 0-5.011-3.417 20.734 20.734 0 0 0-5.28-.805 17.478 17.478 0 0 0-6.167 1.141 17.4 17.4 0 0 1-4.344 1.111 29.328 29.328 0 0 0 .068-4 3.115 3.115 0 0 0 .943.458 4.824 4.824 0 0 0 1.341.186 8.8 8.8 0 0 0 5.008-2.014c2.793-2.146 4.549-5.176 6.113-7.874l.161-.28a.758.758 0 0 0-.753-1.146l-.331.043c-3.074.388-6.558.828-9.63 2.573a9.178 9.178 0 0 0-3.617 3.459 7.7 7.7 0 0 0-2.931-4.308.59.59 0 1 0-.644.989c3.633 2.366 3.268 9.8 3.083 11.928a18.2 18.2 0 0 1-4.638-1.173 17.032 17.032 0 0 0-6.324-1.079 20 20 0 0 0-5.345.918 9.555 9.555 0 0 0-4.96 3.769 13.311 13.311 0 0 0-1.518 8.509c1.28 12.64 6.427 25.168 15.072 25.168q.262 0 .529-.015c.7-.041 1.394-.089 2.089-.138 1.828-.127 3.718-.262 5.6-.234s3.775.132 5.631.246a15.828 15.828 0 0 0-1.549 2.238 2.353 2.353 0 0 0 1.727 3.467 13.526 13.526 0 0 0 1.981.124 93.481 93.481 0 0 0 13.625-1.694c7.7-1.33 31.316-9.081 37.13-12.966 4.97-3.322 2.809-8.408 1-11.867 1.164-.32 3.733-1 5.587-1.3a34.854 34.854 0 0 1 8.754.441 2.65 2.65 0 0 0 2.384-1.079c.492-.631 1.056-2.022-.664-4.136zm-31.014-28.5l.389.132-.389.26zm-8.457-1.548a22.449 22.449 0 0 1 8.454 1.547v.394a22.372 22.372 0 0 1-7.7 3.676c-1.379.282-3.925.547-5.48-.857a1.946 1.946 0 0 1-.36-2.454l.018-.032c1.129-1.77 3.656-2.182 5.068-2.27zm-23.587 7.492l.326-.041-.326.557zm-11.927 6.626v-.034c.237-2.087 2.331-3.57 3.563-4.269a22.614 22.614 0 0 1 8.359-2.322v.518a22.011 22.011 0 0 1-5.226 6.526c-1.115.857-3.289 2.209-5.3 1.629a1.945 1.945 0 0 1-1.396-2.047zm72.473 8.712c.348-.148 1 .319 1.433 1.017.392.635.492 1.281.233 1.5-.751.639-8.96 4.636-15.242 7.622-.494.226-.908.422-1.225.575l-.213-.469c5.663-4.001 14.056-9.839 15.016-10.244zm-13.157 4.874l.051-.068a25.034 25.034 0 0 0 2.984-6.521l.009-.031a.665.665 0 0 1 .544-.185c.28.035 1 .331 1.626 2.3.85 2.682-5.058 6.476-8.008 8.047l-.222-.48a36.232 36.232 0 0 0 3.016-3.062zm-53.588 27.981c-2.072-.128-4.215-.26-6.36-.288-1.911-.025-3.825.108-5.677.237-.69.048-1.382.1-2.075.136-8.179.482-13.108-11.756-14.361-24.125a12.134 12.134 0 0 1 1.352-7.74 8.341 8.341 0 0 1 4.315-3.261 18.768 18.768 0 0 1 5.016-.862 15.851 15.851 0 0 1 5.866 1 19.38 19.38 0 0 0 5.548 1.318h.089a18.434 18.434 0 0 0 5.391-1.268 16.286 16.286 0 0 1 5.726-1.061 19.533 19.533 0 0 1 4.964.759 8.5 8.5 0 0 1 4.375 2.963 11.162 11.162 0 0 1 1.7 7.293c-.018.3-.044.6-.072.895a55.6 55.6 0 0 1-2.384 11.6.59.59 0 0 0-.014.115c-2.113 1.629-3.869 3.072-5.022 4.152-2.891 2.707-5.964 5.641-8.157 8.153zm51.538-8.674c-5.587 3.734-29.247 11.5-36.675 12.785-5.763 1-12.169 2.028-15.235 1.565a1.171 1.171 0 0 1-.863-1.728v-.005c1.41-2.6 5.842-6.931 10.421-11.22 4.026-3.775 16.009-12.371 24.645-17.594.952.286 4.937 1.808 7.2 7.679a.591.591 0 1 0 1.1-.426c-1.994-5.164-5.225-7.241-7.006-8.028a41.639 41.639 0 0 1 6.339-3.224 6.2 6.2 0 0 1 2.044-.372c3.316 0 5.2 3.223 6.51 5.959l.211.458c.1.205.19.407.281.6.2.429.383.827.556 1.175s.38.733.6 1.149c1.762 3.268 4.403 8.202-.128 11.23zm17.568-13.725a1.789 1.789 0 0 1-1.24.846l-.076-.016a36.039 36.039 0 0 0-9.141-.458c-2.074.33-4.854 1.076-5.938 1.377l-.235-.43 1.336-.634c5.468-2.493 13-5.065 14.53-3.181.572.707 1.17 1.714.764 2.499z" class="cls-2"/>
    </g>
</svg>
