<svg xmlns="http://www.w3.org/2000/svg" id="구성_요소_9_2" width="152" height="152" viewBox="0 0 152 152">
    <defs>
        <style>
            .cls-2,.cls-3{fill:none;stroke:rgba(126,131,120,.8);stroke-miterlimit:10}.cls-3{stroke-linecap:round}
        </style>
    </defs>
    <circle id="타원_342" cx="76" cy="76" r="76" fill="#e9e9e9"/>
    <g id="그룹_621" transform="translate(-562.681 -253.4)">
        <path id="패스_395" d="M641.525 366.87a4.667 4.667 0 1 1 0-9.335" class="cls-2" transform="translate(-16.93 -38.539)"/>
        <path id="선_87" d="M0 9.335L0 0" class="cls-2" transform="translate(624.595 318.996)"/>
        <path id="패스_396" d="M674.872 321.018c0-8.827-7.083-15.6-16.073-15.6s-16.073 6.774-16.073 15.6" class="cls-2" transform="translate(-20.458 -7.221)"/>
        <path id="패스_397" d="M660.408 352.5c1.3-.233 2.6-.416 3.872-.767 1.254-.345 3.272-.925 3.651-2.366.529-2.009-2.044-3.321-3.506-3.99a24.488 24.488 0 0 0-6.686-1.661c-2.4-.348-4.819-.565-7.238-.727-4.046-.272-8.1-.392-12.16-.392s-8.114.12-12.16.392c-2.419.162-4.838.38-7.238.727a24.488 24.488 0 0 0-6.686 1.661c-1.461.669-4.035 1.981-3.506 3.99.38 1.441 2.4 2.021 3.651 2.366 1.273.35 2.575.534 3.872.767" class="cls-3" transform="translate(0 -29.562)"/>
        <path id="패스_398" d="M662.3 376.013a10.6 10.6 0 0 0 7.6-2.759 24.533 24.533 0 0 0 4.4-5.382 22.993 22.993 0 0 0 1.289-2.32 3.429 3.429 0 0 0 .466-1.293v-9.237c-2.887-1.113-10.8-1.2-13.746-1.2s-10.859.083-13.746 1.2v9.237a3.428 3.428 0 0 0 .466 1.293 23 23 0 0 0 1.289 2.32 24.533 24.533 0 0 0 4.4 5.382 10.6 10.6 0 0 0 7.582 2.759z" class="cls-2" transform="translate(-23.962 -36.31)"/>
        <path id="패스_399" d="M717.444 357.535a4.667 4.667 0 1 1 0 9.335" class="cls-2" transform="translate(-65.356 -38.539)"/>
        <path id="선_88" d="M0 0L0 9.335" class="cls-2" transform="translate(652.088 318.996)"/>
        <path id="패스_400" d="M674.283 385.2h5.79v-1.848c-.185-3.1-3.547-3.1-5.79-3.1s-5.6 0-5.79 3.1v1.848z" class="cls-2" transform="translate(-35.941 -52.188)"/>
        <path id="패스_401" d="M678.26 409.442v2.914l-2.117 7.547a.69.69 0 0 1-1.223.22l-4.54-6.235h-2.99l-4.54 6.235a.69.69 0 0 1-1.223-.22l-2.117-7.547v-2.914" class="cls-3" transform="translate(-30.544 -69.73)"/>
        <path id="패스_402" fill="none" stroke="rgba(126,131,120,0.8)" stroke-linejoin="round" d="M648.807 414c6.4 1.532 15.649 3.208 18.822 10.724.878 1.814.729 3.759.729 5.9v8.08h-57.851v-8.08c0-2.14-.148-4.086.729-5.9 3.174-7.517 12.42-9.192 18.822-10.724" transform="translate(-1.091 -72.47)"/>
        <path id="패스_403" d="M713.468 317.948c.315-4.051 1.033-8.283 3.3-11.745a16.359 16.359 0 0 1 5.893-5.278" class="cls-3" transform="translate(-62.967 -4.522)"/>
        <path id="패스_404" d="M714.673 310.468a2 2 0 0 0 .4 2.5c.445.526.561.642.561.642a4.509 4.509 0 0 0 .217-.578 2.954 2.954 0 0 0 .113-.5 1.016 1.016 0 0 0-.057-.523 3.25 3.25 0 0 0-.349-.617 4.288 4.288 0 0 0-.4-.508c-.042-.044-.084-.088-.13-.128a2.771 2.771 0 0 0-.355-.288z" class="cls-2" transform="translate(-63.528 -10.256)"/>
        <path id="패스_405" d="M723.235 317.016a1.839 1.839 0 0 1-1.964 1.247c-.633.014-.784.005-.784.005a4.152 4.152 0 0 1 .265-.5 2.719 2.719 0 0 1 .276-.383.935.935 0 0 1 .4-.28 3.013 3.013 0 0 1 .637-.136 4 4 0 0 1 .595-.033 1.668 1.668 0 0 1 .167.011 2.546 2.546 0 0 1 .408.069z" class="cls-2" transform="translate(-67.185 -14.141)"/>
        <path id="패스_406" d="M718.941 304.947a1.912 1.912 0 0 0 .037 2.42c.349.56.443.685.443.685a4.339 4.339 0 0 0 .285-.517 2.827 2.827 0 0 0 .176-.459.97.97 0 0 0 .018-.5 3.133 3.133 0 0 0-.245-.632 4.2 4.2 0 0 0-.311-.536l-.1-.139a2.7 2.7 0 0 0-.303-.322z" class="cls-2" transform="translate(-66.005 -6.939)"/>
        <path id="패스_407" d="M726.219 312.393a1.838 1.838 0 0 1-2.046 1.107c-.633-.03-.783-.049-.783-.049a4.212 4.212 0 0 1 .3-.482 2.745 2.745 0 0 1 .3-.363.927.927 0 0 1 .414-.251 2.979 2.979 0 0 1 .645-.091 3.959 3.959 0 0 1 .6.008 1.661 1.661 0 0 1 .166.023 2.614 2.614 0 0 1 .404.098z" class="cls-2" transform="translate(-68.929 -11.33)"/>
        <path id="패스_408" d="M723.831 299.844a1.838 1.838 0 0 0-.265 2.311c.263.577.337.708.337.708a4.184 4.184 0 0 0 .336-.458 2.717 2.717 0 0 0 .224-.415.932.932 0 0 0 .079-.478 2.987 2.987 0 0 0-.156-.633 3.941 3.941 0 0 0-.229-.55c-.026-.05-.053-.1-.083-.146a2.593 2.593 0 0 0-.243-.339z" class="cls-2" transform="translate(-68.86 -3.872)"/>
        <path id="패스_409" d="M729.62 296.047a1.773 1.773 0 0 0-.672 2.142c.145.594.191.732.191.732a4 4 0 0 0 .4-.372 2.6 2.6 0 0 0 .289-.353.9.9 0 0 0 .162-.438 2.9 2.9 0 0 0-.032-.628 3.806 3.806 0 0 0-.118-.563c-.015-.051-.032-.1-.052-.153a2.5 2.5 0 0 0-.168-.367z" class="cls-2" transform="translate(-72.199 -1.591)"/>
        <path id="패스_410" d="M734.768 293.4a1.6 1.6 0 0 0-.7 1.9c.106.542.142.668.142.668a3.708 3.708 0 0 0 .378-.319 2.387 2.387 0 0 0 .275-.306.812.812 0 0 0 .164-.389 2.6 2.6 0 0 0 0-.568 3.434 3.434 0 0 0-.082-.512c-.012-.047-.024-.094-.041-.14a2.264 2.264 0 0 0-.136-.334z" class="cls-2" transform="translate(-75.302)"/>
        <path id="패스_411" d="M730.352 308.234a1.838 1.838 0 0 1-2.21.728c-.618-.141-.762-.187-.762-.187a4.191 4.191 0 0 1 .38-.421 2.706 2.706 0 0 1 .362-.3.933.933 0 0 1 .452-.174 2.989 2.989 0 0 1 .651.024 3.933 3.933 0 0 1 .585.113 1.671 1.671 0 0 1 .159.051 2.591 2.591 0 0 1 .383.166z" class="cls-2" transform="translate(-71.328 -8.693)"/>
        <path id="패스_412" d="M735.01 304.778a1.76 1.76 0 0 1-2.2.34c-.562-.231-.69-.3-.69-.3a4.042 4.042 0 0 1 .426-.338 2.642 2.642 0 0 1 .39-.23.9.9 0 0 1 .454-.094 2.891 2.891 0 0 1 .612.126 3.791 3.791 0 0 1 .535.2c.048.022.1.047.142.074a2.5 2.5 0 0 1 .331.222z" class="cls-2" transform="translate(-74.174 -6.464)"/>
        <path id="패스_413" d="M739.916 302.444a1.521 1.521 0 0 1-1.922-.079c-.437-.289-.535-.366-.535-.366a3.459 3.459 0 0 1 .417-.216 2.263 2.263 0 0 1 .368-.13.77.77 0 0 1 .4 0 2.482 2.482 0 0 1 .5.208 3.285 3.285 0 0 1 .42.258c.037.027.074.055.108.086a2.118 2.118 0 0 1 .244.239z" class="cls-2" transform="translate(-77.383 -4.942)"/>
    </g>
</svg>
