<svg xmlns="http://www.w3.org/2000/svg" width="49.552" height="40.958" viewBox="0 0 49.552 40.958">
    <defs>
        <style>
            .cls-1{fill:#859985}
        </style>
    </defs>
    <g id="그룹_566" transform="translate(-907.666 -3906.56)">
        <path id="패스_353" d="M67.449 973.847l-.973.435c-8.739 3.886-18.643 8.29-26.052 16.064-3.365 3.529-8.622 10.373-7.34 17.628a7.945 7.945 0 0 0 7.735 6.581h.053c7.44 0 13.249-6.5 16.112-10.484 6.261-8.722 8.753-19.272 10.952-28.58l.243-1.039a.528.528 0 0 0-.73-.605z" class="cls-1" transform="translate(889.023 2932.963)"/>
        <path id="패스_355" d="M14.025.019L13.631.2C10.084 1.772 6.065 3.56 3.059 6.714 1.693 8.146-.44 10.924.08 13.868a3.224 3.224 0 0 0 3.139 2.671h.021c3.019 0 5.377-2.636 6.538-4.255 2.541-3.539 3.552-7.821 4.444-11.6l.1-.422a.214.214 0 0 0-.297-.243z" class="cls-1" transform="rotate(-60 3847.76 1173.423)"/>
    </g>
</svg>
