<svg xmlns="http://www.w3.org/2000/svg" width="12.756" height="12.757" viewBox="0 0 12.756 12.757">
    <path fill="#fff" d="M310.865 187.676l-2.907-2.907c.027-.033.049-.069.075-.1.081-.1.162-.21.234-.319.021-.031.037-.063.057-.095.077-.122.152-.244.22-.372l.028-.058c.072-.14.139-.281.2-.427l.013-.034c.061-.152.116-.307.162-.465 0-.013.006-.026.01-.04.044-.155.084-.311.114-.469.008-.039.011-.079.017-.117.023-.132.045-.265.058-.4a5.488 5.488 0 0 0 0-1.055c-.013-.135-.035-.268-.058-.4-.006-.038-.01-.077-.017-.115-.03-.159-.07-.315-.115-.471 0-.013-.006-.025-.01-.038-.046-.158-.1-.314-.163-.467 0-.01-.007-.022-.011-.032-.06-.146-.127-.289-.2-.429l-.026-.056c-.068-.128-.143-.251-.221-.374-.02-.03-.036-.062-.056-.092-.073-.111-.155-.217-.237-.323-.03-.039-.056-.08-.087-.118-.1-.118-.2-.23-.307-.34l-.061-.068a5.447 5.447 0 0 0-7.7 0c-.018.018-.034.039-.052.058-.111.114-.217.229-.317.35-.03.037-.055.076-.084.113-.083.107-.166.215-.241.327-.019.029-.034.06-.053.089-.079.123-.155.248-.223.377-.01.018-.017.038-.026.056-.072.14-.14.283-.2.429 0 .01-.007.022-.011.032-.061.153-.116.308-.163.467 0 .013-.006.025-.01.038-.045.155-.084.312-.115.471-.006.034-.009.069-.015.1-.024.136-.046.273-.06.412a5.492 5.492 0 0 0 0 1.054c.013.138.036.275.059.41.006.035.009.071.016.106.03.159.07.315.114.47 0 .013.006.026.01.04.046.158.1.312.162.465 0 .011.007.023.012.034.06.146.127.287.2.427l.028.058c.068.128.143.252.221.375.019.03.035.061.055.091.073.111.155.217.238.324.03.038.056.079.087.116.1.117.2.23.308.341l.061.068c.021.022.046.04.069.061.11.107.222.212.34.308.038.031.079.057.118.087.105.082.212.163.322.237.03.02.063.037.093.056.122.077.245.153.373.22.02.01.04.018.06.029.139.071.28.138.425.2l.037.013c.151.06.305.115.462.161l.044.011c.153.044.308.083.465.114.038.007.077.01.115.017.133.023.266.045.4.058a5.4 5.4 0 0 0 1.055 0c.135-.013.267-.035.4-.057.039-.007.079-.01.117-.017.157-.03.311-.069.464-.114l.045-.011c.156-.046.309-.1.46-.161l.04-.014c.144-.059.284-.126.423-.2.021-.01.042-.018.063-.029.127-.067.249-.142.37-.219.032-.02.064-.037.1-.057.109-.073.214-.154.319-.234.033-.026.069-.048.1-.075l2.907 2.907a.573.573 0 0 0 .811-.811zm-7.142-2.077a4.255 4.255 0 1 1 4.255-4.255 4.255 4.255 0 0 1-4.255 4.256z" transform="translate(-298.277 -175.898)"/>
</svg>
