<svg xmlns="http://www.w3.org/2000/svg" width="30.138" height="24.911" viewBox="0 0 30.138 24.911">
    <defs>
        <style>
            .cls-1{fill:#859985}
        </style>
    </defs>
    <g id="그룹_749" transform="translate(-907.666 -3906.56)">
        <path id="패스_353" d="M53.908 973.829l-.592.265c-5.315 2.363-11.339 5.042-15.845 9.77-2.046 2.147-5.244 6.309-4.464 10.722a4.833 4.833 0 0 0 4.7 4h.032c4.525 0 8.058-3.95 9.8-6.377 3.808-5.3 5.323-11.721 6.661-17.382l.148-.632a.321.321 0 0 0-.44-.366z" class="cls-1" transform="translate(883.442 2932.883)"/>
        <path id="패스_355" d="M8.53.012l-.24.107a19.408 19.408 0 0 0-6.43 3.965c-.83.871-2.128 2.56-1.811 4.351a1.961 1.961 0 0 0 1.909 1.624h.013c1.836 0 3.27-1.6 3.977-2.588A19.433 19.433 0 0 0 8.651.417l.06-.257A.13.13 0 0 0 8.53.012z" class="cls-1" transform="rotate(-60 3843.55 1170.992)"/>
    </g>
</svg>
