<svg xmlns="http://www.w3.org/2000/svg" width="55" height="55" viewBox="0 0 55 55">
    <circle cx="27.5" cy="27.5" r="27.5" fill="#5c6754"/>
    <path fill="none" stroke="#fff" stroke-miterlimit="10" stroke-width="2px" d="M950.836 1024.067a.882.882 0 0 0 1.044 0c1.3-.963 2.467-1.958 3.615-2.973 2.81-2.482 6.941-5.938 5.6-10.2-1.566-4.986-5.785-4.379-7.288-3.708a5.966 5.966 0 0 0-2.2 1.894.314.314 0 0 1-.508 0 5.965 5.965 0 0 0-2.2-1.894c-1.5-.671-5.721-1.279-7.288 3.708-1.338 4.261 2.793 7.717 5.6 10.2 1.158 1.015 2.326 2.006 3.625 2.973z" transform="translate(-923.857 -996.742)"/>
</svg>
