<svg xmlns="http://www.w3.org/2000/svg" width="47" height="47" viewBox="0 0 47 47">
    <circle cx="23.5" cy="23.5" r="23.5" fill="#a1a69d"/>
    <path fill="none" stroke="#fff" stroke-miterlimit="10" stroke-width="2px" d="M949.418 1021.476a.75.75 0 0 0 .888 0c1.1-.819 2.1-1.665 3.075-2.529 2.389-2.111 5.9-5.05 4.765-8.673-1.332-4.241-4.92-3.724-6.2-3.153a5.073 5.073 0 0 0-1.869 1.611.267.267 0 0 1-.432 0 5.073 5.073 0 0 0-1.869-1.611c-1.278-.571-4.866-1.088-6.2 3.153-1.138 3.624 2.375 6.563 4.765 8.673.979.863 1.973 1.709 3.077 2.529z" transform="translate(-926.361 -998.125)"/>
</svg>
