<svg xmlns="http://www.w3.org/2000/svg" width="100" height="100" viewBox="0 0 100 100">
    <defs>
        <style>
            .cls-2{fill:none;stroke:#fff;stroke-miterlimit:10;stroke-width:5px}
        </style>
    </defs>
    <g id="그룹_338" transform="translate(-770 -4895)">
        <circle id="타원_52" cx="50" cy="50" r="50" fill="#5c6754" transform="translate(770 4895)"/>
        <g id="그룹_104" transform="translate(-300.068 1579.171)">
            <path id="패스_62" d="M1120.369 3402.619h.03c3.107-.039 6.177.267 9.273.448 10.548.615 16.525-14.855 18.019-29.621.336-3.321.115-6.937-1.738-9.82a10.717 10.717 0 0 0-5.569-4.2 23.373 23.373 0 0 0-6.235-1.07 19.859 19.859 0 0 0-7.335 1.254c-2.057.65-4.222 1.516-6.409 1.534h-.05a21.5 21.5 0 0 1-6.291-1.481 20.385 20.385 0 0 0-7.157-1.322 24.207 24.207 0 0 0-6.154.941 11.032 11.032 0 0 0-5.662 3.861c-1.927 2.632-2.347 6.026-2.161 9.2.022.369.052.737.089 1.105 1.495 14.767 7.472 30.237 18.019 29.621 3.108-.184 6.216-.411 9.331-.45z" class="cls-2" transform="translate(0 -7.591)"/>
            <path id="패스_63" d="M1134.208 3354.575s-1.583-12.13 3.955-15.734" class="cls-2" transform="translate(-13.853 -1.026)"/>
            <path id="패스_64" d="M1109.28 3336.1l.2.354c1.834 3.168 3.912 6.759 7.171 9.264 1.48 1.138 4.3 2.861 7.007 2.079a3.045 3.045 0 0 0 2.192-3.212v-.019c-.3-2.832-3.011-4.779-4.644-5.708-3.574-2.029-7.69-2.55-11.322-3.009l-.4-.051a.2.2 0 0 0-.204.302zm1.535.795z" class="cls-2" transform="translate(-5.514)"/>
        </g>
    </g>
</svg>
