<svg xmlns="http://www.w3.org/2000/svg" width="85.851" height="93.044" viewBox="0 0 85.851 93.044">
    <defs>
        <style>
            .cls-1{fill:none;stroke:#97b297;stroke-miterlimit:10;stroke-width:3px}
        </style>
    </defs>
    <g id="그룹_350" transform="translate(-1091.389 -3334.294)">
        <path id="패스_62" d="M1134.336 3425.133h.045c4.686-.058 9.316.4 13.986.676 15.909.928 24.924-22.405 27.178-44.677.507-5.009.173-10.463-2.622-14.811a16.166 16.166 0 0 0-8.4-6.342 35.26 35.26 0 0 0-9.4-1.613c-3.831-.257-7.449.75-11.064 1.891-3.1.98-6.368 2.287-9.666 2.314h-.075c-3.235 0-6.448-1.271-9.488-2.234-3.515-1.114-7.066-2.18-10.8-1.994a36.516 36.516 0 0 0-9.282 1.419 16.638 16.638 0 0 0-8.54 5.824c-2.906 3.97-3.54 9.089-3.26 13.878.033.557.079 1.112.134 1.667 2.254 22.272 11.269 45.6 27.178 44.677 4.69-.273 9.378-.615 14.076-.675z" class="cls-1"/>
        <path id="패스_63" d="M1134.315 3362.572s-2.387-18.295 5.965-23.731" class="cls-1"/>
        <path id="패스_64" d="M1109.294 3336.258l.308.533c2.766 4.778 5.9 10.194 10.816 13.972 2.232 1.716 6.482 4.315 10.569 3.136a4.592 4.592 0 0 0 3.306-4.845v-.029c-.455-4.271-4.541-7.208-7.005-8.608-5.391-3.061-11.6-3.847-17.077-4.539l-.61-.077a.306.306 0 0 0-.307.457zm2.315 1.2h-.005z" class="cls-1"/>
    </g>
</svg>
