<svg xmlns="http://www.w3.org/2000/svg" id="로고" width="150" height="148.751" viewBox="0 0 150 148.751">
    <defs>
        <style>
            .cls-1{fill:#5c6456}.cls-4{fill:#586751}
        </style>
    </defs>
    <path id="패스_592" d="M492.123 392.217c-14.355 14.355-30.191 17.3-44.183 13.12-.609-.181-1.218-.379-1.827-.576a52.073 52.073 0 0 1-19.513-12.544c-17.021-17.021-20.017-35.36 2.42-57.8a55.435 55.435 0 0 1 29.121-15.342c.494-.082.971-.165 1.449-.247 16.84-2.716 33.928 2.222 44.249 12.56 17.027 17.024 10.722 38.375-11.716 60.829z" class="cls-1" transform="translate(-363.542 -288.325)"/>
    <path id="패스_593" d="M365.331 288.81a46.813 46.813 0 0 1-18.22-89.932 1.646 1.646 0 0 1 1.283 3.032 43.538 43.538 0 1 0 16.937-3.419h-1.646v-2.03l.17-.355a46.68 46.68 0 0 1 8.687-12.174l.08-.1a1.62 1.62 0 0 1 .208-.193 46.9 46.9 0 0 1 29.586-13.525l1.641-.119.153 2.093a18.828 18.828 0 0 1-30.237 15.1 43.449 43.449 0 0 0-5.951 8.084 46.806 46.806 0 0 1-2.692 93.534zm0-91.975zm11-11.991a15.539 15.539 0 0 0 24.529-11.274 43.618 43.618 0 0 0-24.524 11.275z" class="cls-1" transform="translate(-288.045 -170)"/>
    <path id="패스_594" fill="#fff" d="M591.14 321.756c-.477.082-.955.164-1.449.247a44.742 44.742 0 0 1-12.034 85.684c.609.2 1.218.4 1.827.576a45.551 45.551 0 0 0 11.655-86.507z" transform="translate(-495.088 -291.251)"/>
    <g id="그룹_781" transform="translate(0 34.132)">
        <path id="패스_596" d="M189.662 358.255a6.3 6.3 0 0 1-4.048 3.918q-2.9.956-7.233-.725t-5.842-4.4a6.4 6.4 0 0 1-.36-5.679 6.276 6.276 0 0 1 1.858-2.759 6.78 6.78 0 0 1 2.3-1.224l.1-.248c-.418-.09-.868-.2-1.344-.325a12.054 12.054 0 0 1-1.339-.429l-6.858-2.659 1.522-3.928 24.378 9.454-1.231 3.181-2.463-.31-.074.186a6.966 6.966 0 0 1 1.083 2.573 6.018 6.018 0 0 1-.449 3.374zm-2.744-2.355a3.558 3.558 0 0 0-.1-3.429 7.355 7.355 0 0 0-3.427-2.351l-.5-.193a9.123 9.123 0 0 0-4.482-.788 3.452 3.452 0 0 0-2.64 2.509 3.157 3.157 0 0 0 .452 3.312 8.753 8.753 0 0 0 3.788 2.492 8.262 8.262 0 0 0 4.395.682 3.264 3.264 0 0 0 2.514-2.234z" class="cls-4" transform="translate(-166.895 -339.797)"/>
        <path id="패스_597" d="M191.6 476.75l-17.979-2.25.524-4.18 17.981 2.251zm7.2-1.222a2.819 2.819 0 0 1-.683 1.566 1.948 1.948 0 0 1-1.8.483 1.994 1.994 0 0 1-1.64-.914 2.959 2.959 0 0 1 .41-3.267 2.015 2.015 0 0 1 1.81-.464 1.965 1.965 0 0 1 1.624.895 2.787 2.787 0 0 1 .279 1.701z" class="cls-4" transform="translate(-172.269 -444.082)"/>
        <path id="패스_598" d="M172.235 532.771a8.318 8.318 0 0 1 1.707-6.3q2.035-2.442 6.834-2.854a11.469 11.469 0 0 1 5.511.653 7.048 7.048 0 0 1 3.329 2.818 9.977 9.977 0 0 1 1.37 4.412 12.573 12.573 0 0 1-.076 3.042 11.147 11.147 0 0 1-.6 2.352l-3.4-.949c.2-.735.373-1.453.5-2.158a7.449 7.449 0 0 0 .114-1.989q-.376-4.4-6.342-3.886a7.159 7.159 0 0 0-4.267 1.493 3.815 3.815 0 0 0-1.19 3.341 9.032 9.032 0 0 0 .6 2.65 9.781 9.781 0 0 0 1.188 2.128l-3.63.313a7.546 7.546 0 0 1-1.108-2.152 13.064 13.064 0 0 1-.54-2.914z" class="cls-4" transform="translate(-171.125 -486.61)"/>
        <path id="패스_599" d="M210.974 593.54L199.758 598c-.521.2-1.092.409-1.718.612s-1.22.388-1.775.56l.037.094c.481.121 1.027.262 1.644.425a15.146 15.146 0 0 1 1.693.551l7.291 2.86 1.767 4.443-9.951-3.853-6.717 10.983-1.817-4.569 5.133-8.085-2.392-1.314-5.594 2.222-1.542-3.882 23.614-9.387z" class="cls-4" transform="translate(-182.013 -539.431)"/>
        <path id="패스_600" d="M221.116 676.82l2.9 3.546-5.638 9.271a17.256 17.256 0 0 1-1.108 1.683 15.294 15.294 0 0 1-1.251 1.454l.084.1a16.66 16.66 0 0 1 1.691-.862q.931-.419 1.9-.773l10.123-3.78 2.876 3.522-20.793 7.01a9.69 9.69 0 0 1-5.011.446 6.752 6.752 0 0 1-3.908-2.486 11.124 11.124 0 0 1-.857-1.18c-.217-.355-.391-.663-.523-.931l2.59-2.115c.119.217.273.475.457.771a8.233 8.233 0 0 0 .637.884 3.377 3.377 0 0 0 2.276 1.334 6.108 6.108 0 0 0 2.683-.336l1.477-.516z" class="cls-4" transform="translate(-194.626 -609.073)"/>
        <path id="패스_601" d="M373.162 765.719l-3.841-2.1-7.178 13.109-3.694-2.022 7.176-13.11-2.551-1.4.963-1.76 3.13.34.595-1.084q1.669-3.049 3.771-3.444a6.953 6.953 0 0 1 4.625.989 12.186 12.186 0 0 1 1.992 1.339 11.429 11.429 0 0 1 1.336 1.284l-2.448 2.242c-.277-.278-.593-.573-.947-.881a6.927 6.927 0 0 0-1.231-.845 2.072 2.072 0 0 0-1.932-.2 3.6 3.6 0 0 0-1.517 1.628l-.561 1.027 3.84 2.1z" class="cls-4" transform="translate(-319.944 -670.868)"/>
        <path id="패스_602" d="M437.862 807.567a8.074 8.074 0 0 1 4.81 2.771 5.87 5.87 0 0 1 .633 5.046L440.39 827.2l-2.889-.711-.21-2.635-.132-.033a7.959 7.959 0 0 1-2.916 1.5 7.706 7.706 0 0 1-3.606-.183 6.011 6.011 0 0 1-3.6-2.3 5.283 5.283 0 0 1-.543-4.509 4.767 4.767 0 0 1 3.006-3.6 12.021 12.021 0 0 1 6.43-.033l3.075.654.215-.878a3.16 3.16 0 0 0-.219-2.6 3.427 3.427 0 0 0-2.1-1.275 8.888 8.888 0 0 0-2.64-.255 19.891 19.891 0 0 0-2.646.329l-.595-3.177a13.805 13.805 0 0 1 3.243-.371 14.637 14.637 0 0 1 3.599.444zm.519 10.321l-2.157-.462a6.765 6.765 0 0 0-3.961.006 2.77 2.77 0 0 0-1.587 1.967 2.151 2.151 0 0 0 .285 1.981 3.28 3.28 0 0 0 1.8 1.011 4.722 4.722 0 0 0 3.273-.277 3.831 3.831 0 0 0 1.981-2.733z" class="cls-4" transform="translate(-374.114 -713.188)"/>
        <path id="패스_603" d="M549.228 816.661c.289-.01.614 0 .971.019a8.573 8.573 0 0 1 .873.089l-.24 3.921c-.224-.036-.5-.067-.822-.089a7.68 7.68 0 0 0-.821-.024 5.8 5.8 0 0 0-2.489.633 4.464 4.464 0 0 0-1.833 1.749 5.354 5.354 0 0 0-.622 2.931l.307 9.389-4.21.14-.593-18.113 3.241-.106.7 3.121.2-.007a7.6 7.6 0 0 1 2.124-2.529 5.4 5.4 0 0 1 3.214-1.124z" class="cls-4" transform="translate(-464.801 -720.8)"/>
        <path id="패스_604" d="M626.966 776.221a6.259 6.259 0 0 1 4.874-.4q2.052.822 3.452 4.043l4.7 10.825-3.863 1.679-4.384-10.09q-1.611-3.71-4.432-2.484a3.463 3.463 0 0 0-2.31 2.571 7.682 7.682 0 0 0 .805 4.206l3.757 8.647-3.863 1.68-4.382-10.098q-1.611-3.709-4.464-2.471a3.287 3.287 0 0 0-2.273 2.737 9.771 9.771 0 0 0 1.029 4.549l3.529 8.126-3.865 1.678-7.22-16.621 2.974-1.293 1.5 1.939.212-.095a5.011 5.011 0 0 1 1.267-2.791 7.2 7.2 0 0 1 2.5-1.8 7.847 7.847 0 0 1 3.41-.752 4.543 4.543 0 0 1 2.8 1.115l.309-.132a4.944 4.944 0 0 1 1.293-2.9 7.764 7.764 0 0 1 2.645-1.868z" class="cls-4" transform="translate(-519.376 -687.908)"/>
    </g>
</svg>
