<svg xmlns="http://www.w3.org/2000/svg" width="66.209" height="109.662" viewBox="0 0 66.209 109.662">
    <defs>
        <style>
            .cls-1{fill:none;stroke:#1c461e;stroke-miterlimit:10;stroke-width:3px}
        </style>
    </defs>
    <g id="그룹_36" transform="translate(-794.232 -3325.956)">
        <g id="그룹_35">
            <path id="패스_51" d="M795.836 3431.806a2.6 2.6 0 0 0 3.8 1.985c4.086-2.111 10.694-8.664 17.091-15.23 8.164-8.381 29.553-38.061 33-47.371s-7.1-13.092-11.684-15.487-13.709-8.9-19.386-.756-17.843 42.646-20.065 54.133c-1.744 9-3.354 18.166-2.756 22.726z" class="cls-1"/>
            <path id="패스_52" d="M813.037 3366.161s7.051-3.176 16.406 2.9" class="cls-1"/>
            <path id="패스_53" d="M825.478 3378.452a16.068 16.068 0 0 1 11.4 7.141" class="cls-1"/>
            <path id="패스_54" d="M824.965 3383.5s4.641-.4 8 4.713" class="cls-1"/>
            <path id="패스_55" d="M836.018 3354.448s8.239-24.2 9.4-26.118 6.31-.011 5.77 2.229-13.105 25.066-13.105 25.066z" class="cls-1"/>
            <path id="패스_56" d="M838.082 3355.625s11.1-21.151 17.113-19.543 3.173 5.915 2.373 6.088-8.375 4.487-11.095 7.2-6.277 7.259-6.277 7.259z" class="cls-1"/>
            <path id="패스_57" d="M834.74 3353.88s7.705-14.814 2.762-18.472-6.142-.236-5.755.379 2.19 7.343 2.024 10.148a52.459 52.459 0 0 1-1.076 6.807z" class="cls-1"/>
        </g>
    </g>
</svg>
