<svg xmlns="http://www.w3.org/2000/svg" width="47.874" height="46.109" viewBox="0 0 47.874 46.109">
    <path fill="#5c6754" d="M3936.092 329.13a5.223 5.223 0 0 1-.925-2.6 37.975 37.975 0 0 1-.318-5.2 22.3 22.3 0 0 1 3.006-11.361q.378-.627.8-1.224a20.4 20.4 0 0 1 4.788-4.762c8.2-5.844 15.777-6.347 22.379-6.285 5.806.3 5.9.586 5.9.586s-2.513 2.053-4.491 7.827-3.017 10.7-5.913 14.75-5.441 7.778-12.771 8.8c-1.94.27-3.891.49-5.849.571a15.347 15.347 0 0 1-5.6-.376 2.293 2.293 0 0 1-1.006-.726z" transform="rotate(-28 1405.467 8056.426)"/>
</svg>
