<svg xmlns="http://www.w3.org/2000/svg" id="그룹_440" width="40" height="40" viewBox="0 0 40 40">
    <defs>
        <style>
            .cls-2{fill:none;stroke:#fff;stroke-linecap:round;stroke-miterlimit:10;stroke-width:2px}
        </style>
    </defs>
    <circle id="타원_27" cx="20" cy="20" r="20" fill="#5c6754"/>
    <g id="그룹_302" transform="translate(7.397 7.021)">
        <path id="선_72" d="M0 0L8.636 0" class="cls-2" transform="translate(9.043 4.318)"/>
        <path id="선_73" d="M0 0L0 8.636" class="cls-2" transform="translate(13.361)"/>
        <path id="패스_127" d="M2110.389 1122.97h1.562a2.213 2.213 0 0 1 1.578 1.435c.623 1.339 3.136 9.52 3.32 9.85s.507.917 2.454.917h9.083a1.668 1.668 0 0 0 .587-.182 1.474 1.474 0 0 0 .256-.167 1.4 1.4 0 0 0 .4-.5 2.41 2.41 0 0 0 .18-.38c.137-.369.251-.748.368-1.124q.266-.851.522-1.7.244-.808.483-1.617l.141-.483a1.553 1.553 0 0 0 .076-.862 1.918 1.918 0 0 0-.316-.664 1.768 1.768 0 0 0-1.2-.689c-1.333-.177-13.132 0-13.132 0" class="cls-2" transform="translate(-2110.389 -1115.22)"/>
        <circle id="타원_132" cx="1.533" cy="1.533" r="1.533" class="cls-2" transform="translate(7.381 22.126)"/>
        <circle id="타원_133" cx="1.533" cy="1.533" r="1.533" class="cls-2" transform="translate(15.433 22.126)"/>
    </g>
</svg>
