<svg xmlns="http://www.w3.org/2000/svg" width="60" height="60" viewBox="0 0 60 60">
    <defs>
        <style>
            .cls-5{fill:#fff;stroke:#5e6656}.cls-3{fill:none;stroke:#fff}.cls-3,.cls-5{stroke-miterlimit:10;stroke-width:2px;stroke-linecap:round}
        </style>
    </defs>
    <g id="그룹_548" transform="translate(-1354.5 -191.5)">
        <circle id="타원_288" cx="28.5" cy="28.5" r="28.5" fill="#fff" stroke="#5e6656" stroke-width="3px" transform="translate(1356 193)"/>
        <g id="그룹_524" transform="translate(1372.387 200.245)">
            <g id="그룹_56">
                <path id="패스_87" fill="none" stroke="#fff" stroke-miterlimit="10" stroke-width="2px" d="M3360.38 534.862a1.026 1.026 0 0 0 1.5.783c1.611-.832 4.217-3.417 6.74-6.006 3.22-3.3 11.654-15.01 13.015-18.681s-2.8-5.163-4.608-6.108-5.406-3.51-7.646-.3-7.037 16.818-7.913 21.348c-.689 3.551-1.324 7.165-1.088 8.964z" transform="translate(-3360.33 -493.744)"/>
                <path id="패스_88" d="M3381.705 521.025s2.781-1.252 6.47 1.143" class="cls-3" transform="translate(-3374.872 -505.795)"/>
                <path id="패스_89" d="M3397.052 536.883a6.335 6.335 0 0 1 4.495 2.816" class="cls-3" transform="translate(-3385.313 -516.806)"/>
                <path id="패스_90" d="M3396.419 543.109a3.656 3.656 0 0 1 3.154 1.859" class="cls-3" transform="translate(-3384.882 -521.039)"/>
                <path id="패스_91" d="M3410.054 484.692s3.25-9.545 3.707-10.3 2.489 0 2.275.879-5.168 9.885-5.168 9.885z" class="cls-3" transform="translate(-3394.158 -474.081)"/>
                <path id="패스_92" d="M3412.6 492.25s4.377-8.341 6.749-7.707 1.251 2.332.936 2.4a20.623 20.623 0 0 0-4.376 2.84c-1.073 1.071-2.475 2.863-2.475 2.863z" class="cls-3" transform="translate(-3395.89 -481.175)"/>
                <path id="패스_93" d="M3405.91 489.672s3.038-5.842 1.089-7.285-2.423-.093-2.27.15a14.249 14.249 0 0 1 .8 4 20.63 20.63 0 0 1-.424 2.684z" class="cls-3" transform="translate(-3390.517 -479.285)"/>
            </g>
        </g>
        <g id="그룹_525" transform="translate(1372.387 200.792)">
            <path id="패스_87-2" fill="#fff" stroke="#5e6656" stroke-miterlimit="10" stroke-width="2px" d="M3360.38 534.862a1.026 1.026 0 0 0 1.5.783c1.611-.832 4.217-3.417 6.74-6.006 3.22-3.3 11.654-15.01 13.015-18.681s-2.8-5.163-4.608-6.108-5.406-3.51-7.646-.3-7.037 16.818-7.913 21.348c-.689 3.551-1.324 7.165-1.088 8.964z" transform="translate(-3360.33 -493.744)"/>
            <path id="패스_88-2" d="M3381.705 521.025s2.781-1.252 6.47 1.143" class="cls-5" transform="translate(-3374.871 -505.795)"/>
            <path id="패스_89-2" d="M3397.052 536.883a6.335 6.335 0 0 1 4.495 2.816" class="cls-5" transform="translate(-3385.313 -516.806)"/>
            <path id="패스_90-2" d="M3396.419 543.109a3.656 3.656 0 0 1 3.154 1.859" class="cls-5" transform="translate(-3384.882 -521.04)"/>
            <path id="패스_91-2" d="M3410.054 484.692s3.25-9.545 3.707-10.3 2.489 0 2.275.879-5.168 9.885-5.168 9.885z" class="cls-5" transform="translate(-3394.158 -474.082)"/>
            <path id="패스_92-2" d="M3412.6 492.25s4.377-8.341 6.749-7.707 1.251 2.332.936 2.4a20.623 20.623 0 0 0-4.376 2.84c-1.073 1.071-2.475 2.863-2.475 2.863z" class="cls-5" transform="translate(-3395.89 -481.175)"/>
            <path id="패스_93-2" d="M3405.91 489.672s3.038-5.842 1.089-7.285-2.423-.093-2.27.15a14.249 14.249 0 0 1 .8 4 20.63 20.63 0 0 1-.424 2.684z" class="cls-5" transform="translate(-3390.517 -479.285)"/>
        </g>
    </g>
</svg>
