<svg xmlns="http://www.w3.org/2000/svg" width="77" height="77" viewBox="0 0 77 77">
    <defs>
        <style>
            .cls-3{fill:#005600}
        </style>
    </defs>
    <g id="그룹_337" transform="translate(-1529 -930)">
        <g id="그룹_334" transform="translate(3.029 -.165) translate(1531.971 936.165)">
            <circle id="타원_26" cx="32.5" cy="32.5" r="32.5" fill="#005600" opacity="0.4"/>
            <circle id="타원_27" cx="32.5" cy="32.5" r="32.5" fill="#fff"/>
        </g>
        <g id="그룹_335" transform="translate(2.944 -.601)">
            <path id="패스_66" d="M1812.526 985.485a4.282 4.282 0 0 0-3.42-1.786h-22.724a1 1 0 0 0 0 2h22.724a2.285 2.285 0 0 1 1.719.862 2.707 2.707 0 0 1 .705 1.525c-.25.939-2.412 8.222-2.861 9.567a2.769 2.769 0 0 1-2.408 1.587h-17.331a2.6 2.6 0 0 1-2.782-2.191c-.466-1.6-4.836-14.545-5.737-16.925a5.136 5.136 0 0 0-4.965-3.523h-.876a1 1 0 0 0 0 2h.876a3.131 3.131 0 0 1 3.094 2.23c.869 2.3 5.252 15.283 5.689 16.778a4.579 4.579 0 0 0 4.7 3.631h17.331a4.785 4.785 0 0 0 4.305-2.955c.455-1.361 2.643-8.734 2.9-9.683a3.978 3.978 0 0 0-.939-3.117z" class="cls-3" transform="translate(-230.515 -22)"/>
            <path id="패스_67" d="M1790.12 1002.933a3.67 3.67 0 1 0 3.67 3.67 3.675 3.675 0 0 0-3.67-3.67zm0 5.34a1.67 1.67 0 1 1 1.67-1.67 1.673 1.673 0 0 1-1.67 1.67z" class="cls-3" transform="translate(-230.515 -22)"/>
            <path id="패스_68" d="M1805.071 1002.933a3.67 3.67 0 1 0 3.67 3.67 3.675 3.675 0 0 0-3.67-3.67zm0 5.34a1.67 1.67 0 1 1 1.67-1.67 1.673 1.673 0 0 1-1.67 1.67z" class="cls-3" transform="translate(-230.515 -22)"/>
        </g>
    </g>
</svg>
