<svg xmlns="http://www.w3.org/2000/svg" width="40" height="40" viewBox="0 0 40 40">
    <circle cx="20" cy="20" r="20" fill="#5c6754"/>
    <path fill="#fff" d="M1729.9 2751.649a5.8 5.8 0 0 0-8.316 0l-1.117 1.141-1.022-1.044a5.792 5.792 0 0 0-8.317 0 6.1 6.1 0 0 0 0 8.5l5.179 5.291a5.792 5.792 0 0 0 8.316 0l.016-.02c.027-.027.057-.05.083-.077l5.178-5.291a6.108 6.108 0 0 0 0-8.5zm-18.766 4.345a4.265 4.265 0 0 1 1.216-3 4.1 4.1 0 0 1 5.872 0l1.022 1.045-2.839 2.9a6.059 6.059 0 0 0-1.71 4.45l-2.345-2.4a4.263 4.263 0 0 1-1.211-2.995zm17.544 2.9l-5.178 5.292a4.1 4.1 0 0 1-5.872 0 4.313 4.313 0 0 1 0-6l2.839-2.9 1.646 1.683a.852.852 0 0 0 1.223 0 .9.9 0 0 0 0-1.249l-1.647-1.682 1.117-1.142a4.1 4.1 0 0 1 5.872 0 4.314 4.314 0 0 1 .005 6.004z" transform="translate(-1700.199 -2736.651)"/>
</svg>
