<svg xmlns="http://www.w3.org/2000/svg" width="33" height="33" viewBox="0 0 33 33">
    <g data-name="그룹 64">
        <g data-name="그룹 59">
            <path data-name="패스 52" d="M3563.387 339.954h-31a1 1 0 0 1-1-1v-25.215a1 1 0 0 1 1-1h31a1 1 0 0 1 1 1v25.215a1 1 0 0 1-1 1zm-30-2h29v-23.215h-29z" style="fill:#5c6754" transform="translate(-3531.387 -306.954)"/>
        </g>
        <g data-name="그룹 60">
            <path data-name="패스 53" d="M3547.887 314.739a.806.806 0 0 1-.109-.007c-4.584-.505-6.865-2.714-7.094-4.679a2.739 2.739 0 0 1 1.984-2.943 2.7 2.7 0 0 1 2.148.151c2.375 1.179 3.862 5.666 4.024 6.174a1 1 0 0 1-.953 1.3zm-4.328-5.785a.632.632 0 0 0-.222.041c-.732.259-.682.687-.666.827.088.762 1.17 2 3.653 2.627-.629-1.429-1.525-2.965-2.4-3.4a.831.831 0 0 0-.365-.095z" style="fill:#5c6754" transform="translate(-3531.387 -306.954)"/>
        </g>
        <g data-name="그룹 61">
            <path data-name="패스 54" d="M3547.887 314.739a1 1 0 0 1-.952-1.3c.161-.508 1.648-4.995 4.023-6.174a2.7 2.7 0 0 1 2.149-.151 2.739 2.739 0 0 1 1.983 2.943c-.228 1.965-2.51 4.175-7.093 4.679a.823.823 0 0 1-.11.003zm4.329-5.785a.826.826 0 0 0-.369.1c-.875.434-1.771 1.969-2.4 3.4 2.484-.627 3.566-1.865 3.655-2.627.016-.14.065-.568-.666-.827a.632.632 0 0 0-.22-.046z" style="fill:#5c6754" transform="translate(-3531.387 -306.954)"/>
        </g>
        <g data-name="그룹 62">
            <path data-name="패스 55" d="M3563.387 321.234h-31a1 1 0 0 1 0-2h31a1 1 0 0 1 0 2z" style="fill:#5c6754" transform="translate(-3531.387 -306.954)"/>
        </g>
        <g data-name="그룹 63">
            <path data-name="패스 56" d="M3547.887 339.951a1 1 0 0 1-1-1v-25.212a1 1 0 0 1 2 0v25.212a1 1 0 0 1-1 1z" style="fill:#5c6754" transform="translate(-3531.387 -306.954)"/>
        </g>
    </g>
</svg>
