<svg xmlns="http://www.w3.org/2000/svg" width="77" height="77" viewBox="0 0 77 77">
    <g transform="translate(-1529 -843)">
        <circle cx="32.5" cy="32.5" r="32.5" fill="#005600" opacity="0.4" transform="translate(1535 849)"/>
        <circle cx="32.5" cy="32.5" r="32.5" fill="#fff" transform="translate(1535 849)"/>
        <path fill="#005600" d="M1806.834 896.4l-9.627-9.627a1.065 1.065 0 0 0-.151-.124c-.016-.01-.034-.017-.05-.027a1.1 1.1 0 0 0-.122-.065c-.022-.009-.046-.014-.069-.021a.99.99 0 0 0-.117-.036.992.992 0 0 0-.4 0 .99.99 0 0 0-.117.036c-.023.007-.047.012-.069.021a1.1 1.1 0 0 0-.122.065c-.016.01-.034.017-.05.027a1.065 1.065 0 0 0-.151.124l-9.627 9.627a1 1 0 0 0 1.413 1.414l7.922-7.922V911.8a1 1 0 1 0 2 0v-21.912l7.922 7.922a1 1 0 1 0 1.413-1.414z" transform="translate(-228.873 -18.476)"/>
    </g>
</svg>
