<svg xmlns="http://www.w3.org/2000/svg" width="67" height="67" viewBox="0 0 67 67">
    <defs>
        <style>
            .cls-3{fill:#fff}
        </style>
    </defs>
    <g id="그룹_409" transform="translate(-704 -575)">
        <circle id="타원_136" cx="33.5" cy="33.5" r="33.5" fill="#9e9574" transform="translate(704 575)"/>
        <path id="패스_154" fill="rgba(255,255,255,0.4)" d="M1126.788 879.108h-.056a8.889 8.889 0 0 1-8.648-7.357c-1.432-8.108 4.444-15.756 8.2-19.7 8.281-8.686 19.349-13.61 29.114-17.954l1.088-.484a.594.594 0 0 1 .819.679l-.274 1.158c-2.456 10.4-5.241 22.191-12.24 31.94-3.197 4.456-9.691 11.718-18.003 11.718zm27.109-40.7a.594.594 0 0 0-.821-.681c-8.976 4.044-17.985 8.518-25.075 15.956-3.605 3.782-9.356 11.238-7.36 18.674a5.9 5.9 0 0 0 5.246 4.349c7.677.579 13.937-6.453 16.984-10.7 5.993-8.345 8.718-18.027 11.029-27.597z" transform="translate(-400.094 -247.834)"/>
        <g id="그룹_178" transform="translate(714.191 600.643)">
            <path id="패스_149" d="M1102.3 871h5.313c3.339 0 6.087 1.181 6.087 4.926 0 3.6-2.789 5.191-5.985 5.191h-1.771v5.028h-3.644zm5.232 7.247c1.771 0 2.626-.835 2.626-2.321 0-1.527-.977-2.056-2.728-2.056h-1.486v4.377z" class="cls-3" transform="translate(-1102.304 -870.714)"/>
            <path id="패스_150" d="M1142.959 871h3.644v15.145h-3.644z" class="cls-3" transform="translate(-1128.772 -870.714)"/>
            <path id="패스_151" d="M1161.974 878.122c0-5.048 3.379-7.939 7.227-7.939a6.452 6.452 0 0 1 4.6 1.974l-1.913 2.321a3.757 3.757 0 0 0-2.626-1.181c-1.955 0-3.563 1.75-3.563 4.7 0 3.013 1.384 4.763 3.521 4.763a3.938 3.938 0 0 0 2.891-1.384l1.913 2.28a6.3 6.3 0 0 1-4.947 2.239c-3.846.005-7.103-2.643-7.103-7.773z" class="cls-3" transform="translate(-1141.152 -870.183)"/>
            <path id="패스_152" d="M1203.445 871h3.644v5.985h.061l4.3-5.985h3.99l-4.58 6.066 5.436 9.079h-3.99l-3.562-6.209-1.649 2.239v3.969h-3.644z" class="cls-3" transform="translate(-1168.151 -870.714)"/>
        </g>
    </g>
</svg>
