<svg xmlns="http://www.w3.org/2000/svg" width="55" height="55" viewBox="0 0 55 55">
    <defs>
        <style>
            .cls-3{fill:#fff}
        </style>
    </defs>
    <g id="그룹_413" transform="translate(-860 -1564)">
        <circle id="타원_136" cx="27.5" cy="27.5" r="27.5" fill="#9e9574" transform="translate(860 1564)"/>
        <path id="패스_154" fill="rgba(255,255,255,0.4)" d="M1125.2 871.018h-.047a7.31 7.31 0 0 1-7.112-6.05c-1.178-6.668 3.655-12.957 6.747-16.2 6.81-7.144 15.912-11.193 23.943-14.766l.895-.4a.488.488 0 0 1 .674.558l-.225.953c-2.02 8.554-4.31 18.25-10.066 26.267-2.63 3.666-7.969 9.638-14.809 9.638zm22.295-33.471a.489.489 0 0 0-.675-.56c-7.382 3.326-14.791 7.005-20.621 13.122-2.965 3.111-7.694 9.242-6.053 15.357a4.853 4.853 0 0 0 4.314 3.577c6.313.476 11.461-5.307 13.968-8.8 4.93-6.862 7.172-14.825 9.072-22.696z" transform="translate(-246.539 739.261)"/>
        <g id="그룹_178" transform="translate(868.381 1585.088)">
            <path id="패스_149" d="M1102.3 871h4.369c2.746 0 5.006.971 5.006 4.051 0 2.963-2.293 4.269-4.922 4.269h-1.453v4.135h-3zm4.3 5.96c1.457 0 2.16-.686 2.16-1.908 0-1.256-.8-1.691-2.243-1.691h-1.217v3.6z" class="cls-3" transform="translate(-1102.304 -870.765)"/>
            <path id="패스_150" d="M1142.959 871h3v12.455h-3z" class="cls-3" transform="translate(-1131.292 -870.765)"/>
            <path id="패스_151" d="M1161.974 876.712c0-4.152 2.779-6.529 5.943-6.529a5.306 5.306 0 0 1 3.783 1.624l-1.574 1.909a3.09 3.09 0 0 0-2.16-.971c-1.607 0-2.93 1.439-2.93 3.867 0 2.478 1.138 3.917 2.9 3.917a3.238 3.238 0 0 0 2.378-1.138l1.574 1.875a5.185 5.185 0 0 1-4.068 1.841c-3.168 0-5.846-2.177-5.846-6.395z" class="cls-3" transform="translate(-1144.85 -870.183)"/>
            <path id="패스_152" d="M1203.445 871h3v4.922h.05l3.532-4.922h3.281l-3.767 4.989 4.47 7.466h-3.281l-2.93-5.106-1.356 1.842v3.264h-3z" class="cls-3" transform="translate(-1174.419 -870.765)"/>
        </g>
    </g>
</svg>
