<svg xmlns="http://www.w3.org/2000/svg" width="37.986" height="62.057" viewBox="0 0 37.986 62.057">
    <defs>
        <style>
            .cls-2{fill:#fff;stroke:#8d9388;stroke-miterlimit:10;stroke-width:3px;stroke-linecap:round}
        </style>
    </defs>
    <g id="그룹_369" transform="translate(-361.515 -398.441)">
        <g id="그룹_56" transform="translate(363 400)">
            <path id="패스_87" fill="#fff" stroke="#8d9388" stroke-miterlimit="10" stroke-width="3px" d="M3360.4 547.728a1.44 1.44 0 0 0 2.1 1.1c2.262-1.169 5.919-4.8 9.461-8.43 4.519-4.639 16.358-21.068 18.267-26.221s-3.933-7.247-6.468-8.573-7.588-4.927-10.731-.419-9.876 23.606-11.106 29.964c-.963 4.981-1.854 10.051-1.523 12.579z" transform="translate(-3360.33 -490.015)"/>
            <path id="패스_88" d="M3381.7 521.157s3.9-1.758 9.081 1.6" class="cls-2" transform="translate(-3372.114 -499.78)"/>
            <path id="패스_89" d="M3397.052 536.883a8.892 8.892 0 0 1 6.309 3.953" class="cls-2" transform="translate(-3380.575 -508.703)"/>
            <path id="패스_90" d="M3396.419 543.11a5.132 5.132 0 0 1 4.427 2.609" class="cls-2" transform="translate(-3380.226 -512.134)"/>
            <path id="패스_91" d="M3410.054 488.975s4.561-13.4 5.2-14.457 3.493-.006 3.194 1.233-7.254 13.875-7.254 13.875z" class="cls-2" transform="translate(-3387.743 -474.082)"/>
            <path id="패스_92" d="M3412.6 495.374s6.143-11.708 9.473-10.818 1.756 3.274 1.314 3.37a28.944 28.944 0 0 0-6.142 3.987c-1.506 1.5-3.475 4.018-3.475 4.018z" class="cls-2" transform="translate(-3389.146 -479.83)"/>
            <path id="패스_93" d="M3406.4 492.877s4.265-8.2 1.529-10.225-3.4-.131-3.185.21a19.993 19.993 0 0 1 1.12 5.617 29.041 29.041 0 0 1-.6 3.767z" class="cls-2" transform="translate(-3384.792 -478.298)"/>
        </g>
    </g>
</svg>
