<svg xmlns="http://www.w3.org/2000/svg" width="100" height="100" viewBox="0 0 100 100">
    <g>
        <path fill="#5c6754" d="M38.463 18.086L20.8.534a1.959 1.959 0 0 0-.28-.226c-.029-.018-.062-.031-.092-.049A2 2 0 0 0 20.2.14c-.036-.016-.08-.025-.122-.04a1.841 1.841 0 0 0-.215-.066 1.832 1.832 0 0 0-.727 0 1.833 1.833 0 0 0-.214.066c-.042.013-.087.022-.127.038a2 2 0 0 0-.224.119c-.029.018-.062.031-.092.049a1.958 1.958 0 0 0-.279.228L.537 18.086a1.816 1.816 0 0 0 0 2.578 1.842 1.842 0 0 0 2.593 0L17.667 6.221v39.956a1.833 1.833 0 0 0 3.666 0V6.221L35.87 20.664a1.828 1.828 0 1 0 2.593-2.578z" transform="translate(-1320 -5917) rotate(90 -2269 3664)"/>
        <text fill="#5e6656" font-family="NotoSansKR-Light, Noto Sans KR" font-size="15px" font-weight="300" transform="translate(-1320 -5917) translate(1343 5996)">
            <tspan x="0" y="0">방문하기</tspan>
        </text>
        <g fill="none" stroke="#e6e6e6" transform="translate(-1320 -5917) translate(1320 5917)">
            <circle cx="50" cy="50" r="50" stroke="none"/>
            <circle cx="50" cy="50" r="49.5"/>
        </g>
    </g>
</svg>
