<svg xmlns="http://www.w3.org/2000/svg" width="23.262" height="19.227" viewBox="0 0 23.262 19.227">
    <defs>
        <style>
            .cls-1{fill:#859985}
        </style>
    </defs>
    <g id="그룹_654" transform="translate(-907.666 -3906.56)">
        <path id="패스_353" d="M49.331 973.822l-.463.2c-4.158 1.824-8.87 3.891-12.4 7.54-1.6 1.657-4.1 4.869-3.492 8.275a3.765 3.765 0 0 0 3.68 3.089h.025c3.54 0 6.3-3.049 7.666-4.921 2.979-4.094 4.164-9.046 5.211-13.415l.115-.488a.25.25 0 0 0-.342-.28z" class="cls-1" transform="translate(881.242 2932.856)"/>
        <path id="패스_355" d="M6.673.009l-.188.084a15.182 15.182 0 0 0-5.03 3.1A4.293 4.293 0 0 0 .038 6.6a1.534 1.534 0 0 0 1.494 1.269h.01a4.268 4.268 0 0 0 3.111-2.024A15.2 15.2 0 0 0 6.767.327l.047-.2a.1.1 0 0 0-.141-.118z" class="cls-1" transform="rotate(-60 3842.126 1170.17)"/>
    </g>
</svg>
