<svg xmlns="http://www.w3.org/2000/svg" width="76.089" height="67.283" viewBox="0 0 76.089 67.283">
    <path fill="#fff" d="M3937.415 362.551a10.776 10.776 0 0 1-1.907-5.361 78.411 78.411 0 0 1-.656-10.732 46.019 46.019 0 0 1 6.2-23.439q.78-1.293 1.656-2.525a42.1 42.1 0 0 1 9.879-9.825c16.907-12.058 32.551-13.095 46.171-12.966 11.978.62 12.178 1.208 12.178 1.208s-5.185 4.235-9.266 16.149-6.225 22.08-12.2 30.431-11.225 16.047-26.347 18.151c-4 .557-8.027 1.01-12.068 1.177-3.679.152-8.039.489-11.557-.776a4.731 4.731 0 0 1-2.083-1.492z" opacity="0.87" transform="translate(-3934.848 -297.694)"/>
</svg>
