<svg xmlns="http://www.w3.org/2000/svg" width="103.897" height="91.874" viewBox="0 0 103.897 91.874">
    <g>
        <path fill="#9e9574" d="M3938.353 386.256c-1.62-1.979-2.28-4.828-2.6-7.32a107.161 107.161 0 0 1-.9-14.654c.093-11.177 2.663-22.379 8.469-32.006q1.066-1.765 2.262-3.448a57.486 57.486 0 0 1 13.49-13.416c23.087-16.465 44.447-17.881 63.045-17.705 16.355.847 16.628 1.65 16.628 1.65s-7.08 5.782-12.653 22.051-8.5 30.15-16.66 41.553-15.327 21.912-35.975 24.785c-5.467.76-10.961 1.379-16.479 1.607-5.024.207-10.977.668-15.781-1.059a6.458 6.458 0 0 1-2.846-2.038z" transform="translate(-439.975 -363.045) translate(-3494.873 65.351)"/>
        <text fill="#fff" font-family="NotoSansKR-Bold, Noto Sans KR" font-size="18px" font-weight="700" transform="translate(-439.975 -363.045) translate(448.251 398.333)">
            <tspan x="0" y="21">마감임박</tspan>
        </text>
    </g>
</svg>
