<svg xmlns="http://www.w3.org/2000/svg" width="163.847" height="144.886" viewBox="0 0 163.847 144.886">
    <g>
        <path fill="#004818" d="M3940.375 437.357c-2.554-3.121-3.6-7.614-4.108-11.544a168.952 168.952 0 0 1-1.413-23.11c.147-17.626 4.2-35.292 13.356-50.474q1.68-2.784 3.567-5.437a90.655 90.655 0 0 1 21.273-21.157c36.408-25.965 70.094-28.2 99.422-27.921 25.793 1.336 26.224 2.6 26.224 2.6s-11.165 9.119-19.954 34.774-13.405 47.547-26.273 65.53-24.171 34.556-56.733 39.086c-8.621 1.2-17.286 2.175-25.987 2.535-7.923.327-17.311 1.054-24.887-1.67a10.183 10.183 0 0 1-4.487-3.212z" transform="translate(-356.153 -336.539) translate(-3578.696 38.845)"/>
        <text fill="#fff" font-family="NotoSansKR-Bold, Noto Sans KR" font-size="25px" font-weight="700" transform="translate(-356.153 -336.539) translate(379.363 394.666)">
            <tspan x="0" y="29">마감임박</tspan>
        </text>
    </g>
</svg>
