<svg xmlns="http://www.w3.org/2000/svg" width="73.428" height="73.428" viewBox="0 0 73.428 73.428">
    <defs>
        <style>
            .cls-2{fill:none;stroke:#fff;stroke-linecap:round;stroke-miterlimit:10;stroke-width:4.3px}
        </style>
    </defs>
    <g id="그룹_132" transform="translate(-696.572 -810.853)">
        <circle id="타원_27" cx="36.714" cy="36.714" r="36.714" fill="#5c6754" transform="translate(696.572 810.853)"/>
        <g id="그룹_129" transform="translate(709.042 822.749)">
            <path id="선_72" d="M0 0L17.582 0" class="cls-2" transform="translate(18.411 8.791)"/>
            <path id="선_73" d="M0 0L0 17.582" class="cls-2" transform="translate(27.202)"/>
            <path id="패스_127" d="M2110.389 1122.97h3.179s1.942.2 3.212 2.921 6.385 19.382 6.76 20.054 1.033 1.866 5 1.866h18.493a3.392 3.392 0 0 0 1.194-.371 3 3 0 0 0 .521-.339 2.847 2.847 0 0 0 .812-1.018 4.892 4.892 0 0 0 .365-.774c.28-.752.511-1.523.75-2.289q.542-1.732 1.063-3.469.5-1.645.984-3.292l.288-.983a3.167 3.167 0 0 0 .155-1.755 3.893 3.893 0 0 0-.643-1.351 3.6 3.6 0 0 0-2.441-1.4c-2.714-.361-26.736 0-26.736 0" class="cls-2" transform="translate(-2110.389 -1108.15)"/>
            <circle id="타원_132" cx="3.121" cy="3.121" r="3.121" class="cls-2" transform="translate(15.026 43.502)"/>
            <circle id="타원_133" cx="3.121" cy="3.121" r="3.121" class="cls-2" transform="translate(31.422 43.502)"/>
        </g>
    </g>
</svg>
