<svg xmlns="http://www.w3.org/2000/svg" width="60" height="60" viewBox="0 0 60 60">
    <defs>
        <style>
            .cls-2{fill:#fff;stroke:#5e6656;stroke-linecap:round;stroke-miterlimit:10;stroke-width:2px}
        </style>
    </defs>
    <g id="그룹_542" transform="translate(-1257.5 -123.5)">
        <circle id="타원_283" cx="28.5" cy="28.5" r="28.5" fill="#fff" stroke="#5e6656" stroke-width="3px" transform="translate(1259 125)"/>
        <g id="그룹_520" transform="translate(1274.674 139.961)">
            <path id="패스_84" d="M3373.273 905.654h-.013c-1.41-.018-2.8.121-4.209.2-4.788.279-7.5-6.743-8.18-13.446a6.932 6.932 0 0 1 .79-4.457 4.861 4.861 0 0 1 2.527-1.909 10.6 10.6 0 0 1 2.831-.486 9.02 9.02 0 0 1 3.33.569 10.246 10.246 0 0 0 2.909.7h.023a9.768 9.768 0 0 0 2.855-.672 9.255 9.255 0 0 1 3.249-.6 10.983 10.983 0 0 1 2.793.427 5 5 0 0 1 2.57 1.753 6.384 6.384 0 0 1 .981 4.177c-.01.168-.024.335-.04.5-.678 6.7-3.391 13.726-8.179 13.446-1.41-.081-2.822-.183-4.237-.202z" class="cls-2" transform="translate(-3360.812 -878.768)"/>
            <path id="패스_85" d="M3389.929 877.679s.718-5.506-1.8-7.142" class="cls-2" transform="translate(-3377.46 -869.621)"/>
            <path id="패스_86" d="M3400.168 868.193l-.184.024a13.661 13.661 0 0 0-5.14 1.366 3.842 3.842 0 0 0-2.108 2.591v.009a1.383 1.383 0 0 0 1 1.458 3.864 3.864 0 0 0 3.181-.944 13.679 13.679 0 0 0 3.255-4.205l.093-.16a.092.092 0 0 0-.097-.139zm-.6.5z" class="cls-2" transform="translate(-3380.26 -868.192)"/>
        </g>
    </g>
</svg>
