<svg xmlns="http://www.w3.org/2000/svg" width="55" height="55" viewBox="0 0 55 55">
    <circle cx="27.5" cy="27.5" r="27.5" fill="#5c6754"/>
    <path fill="#fff" d="M1740.352 2752.643a8.539 8.539 0 0 0-12.555 0l-1.687 1.786-1.544-1.635a8.529 8.529 0 0 0-12.556 0 9.807 9.807 0 0 0 0 13.3l7.819 8.283a8.529 8.529 0 0 0 12.555 0c.01-.01.015-.021.024-.031.041-.042.085-.078.126-.121l7.818-8.283a9.817 9.817 0 0 0 0-13.299zm-28.333 6.8a6.807 6.807 0 0 1 1.836-4.7 6.032 6.032 0 0 1 8.866 0l1.543 1.636-4.286 4.541a9.681 9.681 0 0 0-2.582 6.966l-3.54-3.752a6.8 6.8 0 0 1-1.836-4.689zm26.487 4.544l-7.818 8.283a6.03 6.03 0 0 1-8.865 0 6.932 6.932 0 0 1 0-9.392l4.286-4.541 2.486 2.634a1.255 1.255 0 0 0 1.846 0 1.442 1.442 0 0 0 0-1.955l-2.487-2.634 1.686-1.787a6.031 6.031 0 0 1 8.865 0 6.932 6.932 0 0 1 .002 9.394z" transform="translate(-1698.679 -2736.013)"/>
</svg>
