<svg xmlns="http://www.w3.org/2000/svg" width="73.159" height="73.159" viewBox="0 0 73.159 73.159">
    <g transform="translate(-618.424 -810.853)">
        <circle cx="36.58" cy="36.58" r="36.58" fill="#5c6754" transform="translate(618.424 810.853)"/>
        <path fill="#fff" d="M1751.412 2753.434a12.022 12.022 0 0 0-17.043 0l-2.29 2.3-2.1-2.1a12.081 12.081 0 0 0-17.044 17.128l10.613 10.665a12.009 12.009 0 0 0 17.043 0c.013-.012.021-.028.033-.04.056-.054.116-.1.171-.156l10.612-10.665a12.166 12.166 0 0 0 .005-17.132zm-38.459 8.758a8.51 8.51 0 0 1 14.527-6.047l2.095 2.107-5.818 5.847a12.1 12.1 0 0 0-3.505 8.969l-4.806-4.83a8.517 8.517 0 0 1-2.493-6.046zm35.954 5.851l-10.612 10.665a8.491 8.491 0 0 1-12.033 0 8.591 8.591 0 0 1 0-12.093l5.818-5.847 3.374 3.391a1.767 1.767 0 0 0 2.506 0 1.787 1.787 0 0 0 0-2.518l-3.375-3.391 2.289-2.3a8.491 8.491 0 0 1 12.033 0 8.591 8.591 0 0 1 0 12.093z" transform="translate(-1077.169 -1919.998)"/>
    </g>
</svg>
