<svg xmlns="http://www.w3.org/2000/svg" width="92.315" height="99.317" viewBox="0 0 92.315 99.317">
    <defs>
        <style>
            .cls-2,.cls-3{fill:#4c5344}.cls-3{opacity:.9}
        </style>
    </defs>
    <g id="그룹_615" transform="translate(-188.713 -219.541)">
        <g id="그룹_614" opacity="0.7" transform="translate(188.713 219.541)">
            <path id="패스_388" d="M280.016 257.194l-4.39-4.714a3.779 3.779 0 0 0-5.342-.194l-6.409 5.967v-17.494a5.069 5.069 0 0 0-1.471-3.586l-15.89-16.111a5.15 5.15 0 0 0-3.639-1.52h-49.056a5.111 5.111 0 0 0-5.106 5.106v89.1a5.111 5.111 0 0 0 5.106 5.106h64.948a5.111 5.111 0 0 0 5.106-5.106v-36.362l15.955-14.846a3.792 3.792 0 0 0 .188-5.346zm-11.916 2.3l.747-.694 4.535 4.535-.747.694zm3.974 5.057l-29.464 27.425-10.27 5.887 5.971-10.605 29.231-27.242zm-14.183-26.522H246.5a1.114 1.114 0 0 1-1.113-1.113v-11.564zm2.172 75.725a1.3 1.3 0 0 1-1.3 1.3h-64.944a1.3 1.3 0 0 1-1.3-1.3v-89.1a1.3 1.3 0 0 1 1.3-1.3h47.759v13.562a4.928 4.928 0 0 0 4.923 4.923h13.562V261.8l-24.338 22.658a3.692 3.692 0 0 0-.724.918l-5.979 10.616a3.776 3.776 0 0 0 5.16 5.141l10.323-5.853a4.044 4.044 0 0 0 .7-.514l14.854-13.833zm14.713-51.718l-4.535-4.535 2.6-2.424 4.39 4.676z" class="cls-2" transform="translate(-188.713 -219.541)"/>
            <path id="패스_389" d="M196.417 229.715h24.323a1.429 1.429 0 1 0 0-2.858h-24.323a1.429 1.429 0 1 0 0 2.858z" class="cls-2" transform="translate(-171.076 -198.978)"/>
            <path id="패스_390" d="M194.385 232.252h37.135a.953.953 0 1 0 0-1.905h-37.135a.953.953 0 1 0 0 1.905z" class="cls-2" transform="translate(-175.45 -189.169)"/>
            <path id="패스_391" d="M232.472 233.7a.953.953 0 0 0-.953-.953h-37.134a.953.953 0 1 0 0 1.905h37.135a.953.953 0 0 0 .952-.952z" class="cls-2" transform="translate(-175.45 -182.421)"/>
        </g>
        <path id="패스_392" d="M191.607 230.847c.385.461.751.953 1.109 1.463s.709 1.029 1.048 1.566l-.316-.057c.37-.45.751-.865 1.128-1.3.385-.408.766-.831 1.162-1.219s.785-.777 1.189-1.143a15.461 15.461 0 0 1 1.238-1.025c-.339.53-.694 1.025-1.056 1.5s-.724.937-1.1 1.379-.751.869-1.128 1.3c-.389.412-.766.835-1.162 1.223l-.183.183-.133-.236q-.48-.863-.93-1.764c-.298-.605-.592-1.222-.866-1.87z" class="cls-3" transform="translate(8.134 26.957)"/>
        <path id="패스_393" d="M191.607 233.248c.385.461.751.953 1.109 1.463s.709 1.029 1.048 1.566l-.316-.053c.37-.454.751-.869 1.128-1.3.385-.412.766-.835 1.162-1.223s.785-.777 1.189-1.143a15.474 15.474 0 0 1 1.238-1.025c-.339.53-.694 1.025-1.056 1.5s-.724.937-1.1 1.38-.751.869-1.128 1.3c-.389.412-.766.835-1.162 1.223l-.183.183-.133-.236c-.32-.572-.629-1.162-.93-1.764s-.592-1.219-.866-1.871z" class="cls-3" transform="translate(8.134 33.705)"/>
    </g>
</svg>
