<svg xmlns="http://www.w3.org/2000/svg" width="52.141" height="51.805" viewBox="0 0 52.141 51.805">
    <defs>
        <style>
            .cls-1{fill:#5c6456}.cls-2{fill:#fff}
        </style>
    </defs>
    <g id="그룹_866" transform="translate(-823.86 -299.344)">
        <path id="패스_743" d="M844 350.471a20.145 20.145 0 0 1-7.84-38.7.708.708 0 0 1 .552 1.3A18.736 18.736 0 1 0 844 311.6h-.708v-.874l.073-.153a20.087 20.087 0 0 1 3.739-5.239l.035-.041a.7.7 0 0 1 .09-.083 20.182 20.182 0 0 1 12.732-5.82l.706-.051.066.9a8.1 8.1 0 0 1-13.012 6.5 18.706 18.706 0 0 0-2.561 3.479 20.142 20.142 0 0 1-1.16 40.253zm0-39.579zm4.736-5.16a6.687 6.687 0 0 0 10.555-4.851 18.769 18.769 0 0 0-10.554 4.851z" class="cls-1"/>
        <g id="그룹_860" transform="translate(831.33 311.451)">
            <g id="그룹_858" transform="translate(.704 .703)">
                <path id="패스_744" d="M921.554 453.726a16.569 16.569 0 0 1-4.743-.706c-.248-.074-.493-.153-.752-.237a21.456 21.456 0 0 1-7.985-5.144c-3.7-3.7-5.511-7.24-5.538-10.823-.03-3.991 2.122-8.1 6.579-12.555a22.833 22.833 0 0 1 11.969-6.309l.577-.1.041-.007a23.825 23.825 0 0 1 3.777-.3c5.595 0 10.955 2.023 14.339 5.412 3.28 3.28 4.478 7.061 3.562 11.239-.9 4.109-3.8 8.632-8.605 13.444-3.982 3.981-8.554 6.086-13.221 6.086z" class="cls-2" transform="translate(-901.48 -416.488)"/>
                <path id="패스_745" d="M917.535 410.656a21.832 21.832 0 0 1 7.638 1.361 16.836 16.836 0 0 1 5.955 3.743c3.051 3.051 4.122 6.408 3.276 10.265-.857 3.909-3.657 8.257-8.32 12.924a20.958 20.958 0 0 1-6.3 4.447 15.244 15.244 0 0 1-6.178 1.331 15.518 15.518 0 0 1-4.444-.663c-.23-.068-.464-.144-.715-.225a20.4 20.4 0 0 1-7.575-4.89c-3.493-3.493-5.2-6.792-5.228-10.085a11.613 11.613 0 0 1 1.394-5.409 25.975 25.975 0 0 1 4.876-6.392 21.784 21.784 0 0 1 11.407-6.016l.592-.1h.01a22.8 22.8 0 0 1 3.609-.288m0-2.112a24.865 24.865 0 0 0-3.956.317l-.623.106a23.855 23.855 0 0 0-12.531 6.6c-9.656 9.655-8.366 17.547-1.042 24.872a22.408 22.408 0 0 0 8.395 5.4c.262.085.524.17.786.248a17.593 17.593 0 0 0 5.046.75c4.625 0 9.466-1.895 13.967-6.4 9.655-9.662 12.369-18.85 5.044-26.175-3.632-3.638-9.21-5.722-15.086-5.722z" class="cls-1" transform="translate(-893.536 -408.544)"/>
            </g>
            <g id="그룹_859">
                <path id="패스_746" d="M908.289 442.248a18.189 18.189 0 0 1-5.223-.777c-.27-.08-.54-.168-.8-.253h-.014a23.214 23.214 0 0 1-8.661-5.565c-4.042-4.042-6.022-7.985-6.053-12.054-.034-4.487 2.287-9.005 7.094-13.813a24.585 24.585 0 0 1 12.9-6.8h.014l.6-.1h.019a25.261 25.261 0 0 1 10.885.613 20.171 20.171 0 0 1 8.774 4.989c7.234 7.233 5.489 16.629-5.044 27.17-4.348 4.337-9.358 6.59-14.491 6.59zm-5.584-2.367c.251.082.511.166.763.241 6.378 1.906 12.882-.036 18.315-5.469 4.857-4.86 7.784-9.442 8.7-13.617.944-4.3-.286-8.193-3.656-11.563-4.34-4.346-11.4-6.342-18.432-5.208h-.012l-.6.1a23.183 23.183 0 0 0-12.157 6.407c-4.527 4.527-6.713 8.717-6.682 12.807.028 3.681 1.873 7.3 5.641 11.069a21.806 21.806 0 0 0 8.121 5.233z" class="cls-2" transform="translate(-887.536 -402.55)"/>
            </g>
        </g>
        <path id="패스_747" d="M1047.741 537.07h-3.109v-3.109a.7.7 0 0 0-1.408 0v3.109h-3.109a.7.7 0 0 0 0 1.408h3.109v3.109a.7.7 0 1 0 1.408 0v-3.109h3.109a.7.7 0 1 0 0-1.408z" class="cls-1" transform="translate(-190.265 -206.472)"/>
    </g>
</svg>
