<svg xmlns="http://www.w3.org/2000/svg" width="17.106" height="15.972" viewBox="0 0 17.106 15.972">
    <g data-name="그룹 39">
        <path data-name="패스 4" d="M570.029 505.449a.772.772 0 0 1-.231-.035.784.784 0 0 1-.518-.979c.188-.611 4.742-14.958 16.287-14.958a.782.782 0 0 1 .568.244.792.792 0 0 1 .215.58 10.453 10.453 0 0 1-3.61 7.08c-2.292 1.836-5.426 2.475-9.331 1.9a28.748 28.748 0 0 0-2.632 5.613.784.784 0 0 1-.748.555zm4.33-7.623c3.113.336 5.588-.223 7.389-1.658a8.68 8.68 0 0 0 2.913-5.088c-4.672.367-8.049 3.536-10.302 6.746z" style="fill:#374f34" transform="translate(-569.245 -489.477)"/>
    </g>
</svg>
