<svg xmlns="http://www.w3.org/2000/svg" width="332.733" height="102.391">
    <defs>
        <style>
            .cls-1{fill:#31382c;stroke-miterlimit:10;stroke-width:.95px;stroke:#31382c}
        </style>
    </defs>
    <g id="그룹_947" data-name="그룹 947" transform="translate(-796.061 -2502.343)">
        <path id="패스_763" data-name="패스 763" class="cls-1" d="M844.53 1525.17c-12.56 0-33.62-4.2-33.62-32.32v-17.59a1.06 1.06 0 0 1 2.11 0v17.59c0 26.28 19.74 30.2 31.51 30.2s31.51-3.92 31.51-30.2v-17.59a1.06 1.06 0 0 1 2.11 0v17.59c0 29.15-23.51 32.32-33.62 32.32z" transform="translate(0 1079.089)"/>
        <path id="패스_764" data-name="패스 764" class="cls-1" d="M891.34 1468.18h-93.62a1.06 1.06 0 1 1 0-2.11h93.62a1.06 1.06 0 0 1 0 2.11z" transform="translate(0 1079.089)"/>
        <path id="패스_765" data-name="패스 765" class="cls-1" d="M879.13 1463.85a1.05 1.05 0 0 1-1.06-1.06c0-1.29-.41-31.78-32.52-31.78h-2c-32.11 0-32.52 30.49-32.52 31.78a1.06 1.06 0 0 1-1.06 1.06 1.05 1.05 0 0 1-1-1.06c0-.34.39-33.89 34.63-33.89h2c34.24 0 34.63 33.55 34.63 33.89a1.05 1.05 0 0 1-1 1.06z" transform="translate(0 1079.089)"/>
        <path id="패스_766" data-name="패스 766" class="cls-1" d="M888.85 1443a1.06 1.06 0 0 1-.75-.31l-9.72-9.72a1.057 1.057 0 1 1 1.49-1.5l9 9 16.34-16.34a1.054 1.054 0 1 1 1.49 1.49l-17.09 17.09a1 1 0 0 1-.76.29z" transform="translate(0 1079.089)"/>
        <path id="패스_767" data-name="패스 767" class="cls-1" d="M844.53 1510.63h-.07c-13.85 0-16.87-7.3-17-7.61a1.075 1.075 0 1 1 2-.79c.1.25 2.73 6.25 15 6.26s14.94-6 15-6.26a1.071 1.071 0 0 1 1.99.79c-.12.31-3.14 7.59-17 7.61z" transform="translate(0 1079.089)"/>
        <path id="패스_769" data-name="패스 769" class="cls-1" d="M1127.26 1476.88a1.07 1.07 0 0 1-.77-.34L1083.7 1430a9.45 9.45 0 0 0-13.89 0l-42.81 46.54a1.05 1.05 0 0 1-1.48.06 1 1 0 0 1-.06-1.48l42.78-46.5a11.53 11.53 0 0 1 17 0l42.78 46.5a1 1 0 0 1-.06 1.48 1.08 1.08 0 0 1-.7.28z" transform="translate(0 1079.089)"/>
        <path id="패스_770" data-name="패스 770" class="cls-1" d="M1113.71 1524.06h-73.9a1 1 0 0 1-1-1v-47.19a1.05 1.05 0 1 1 2.1 0V1522h71.8v-46.14a1.05 1.05 0 1 1 2.1 0V1523a1 1 0 0 1-1.1 1.06z" transform="translate(0 1079.089)"/>
        <path id="패스_771" data-name="패스 771" class="cls-1" d="M1086.88 1522H1085v-12a8.23 8.23 0 0 0-16.46 0v12h-1.9v-12a10.13 10.13 0 1 1 20.25 0z" transform="translate(0 1079.089)"/>
        <path id="패스_772" data-name="패스 772" d="M913.97 1521.53h84.53l-8.8-8.8" transform="translate(0 1044.449)" style="fill:none;stroke-linecap:round;stroke-linejoin:round;stroke-width:2.86px;stroke:#31382c"/>
    </g>
</svg>
