<svg xmlns="http://www.w3.org/2000/svg" width="59.365" height="72.964" viewBox="0 0 59.365 72.964">
    <defs>
        <style>
            .cls-1,.cls-2{fill:none;stroke:rgba(126,131,120,.8);stroke-miterlimit:10}.cls-2{stroke-linecap:round}
        </style>
    </defs>
    <g id="그룹_661" transform="translate(0.5 0.802)">
        <path id="패스_395" d="M641.45 366.719a4.592 4.592 0 1 1 0-9.184" class="cls-1" transform="translate(-625.793 -332.351)"/>
        <path id="선_87" d="M0 9.184L0 0" class="cls-1" transform="translate(15.657 25.184)"/>
        <path id="패스_396" d="M674.354 320.766c0-8.685-6.969-15.349-15.814-15.349s-15.814 6.665-15.814 15.349" class="cls-1" transform="translate(-629.358 -300.698)"/>
        <path id="패스_397" d="M659.574 352.339c1.276-.229 2.557-.41 3.81-.754 1.233-.34 3.219-.91 3.593-2.328.521-1.977-2.011-3.267-3.449-3.925a24.094 24.094 0 0 0-6.579-1.634c-2.361-.342-4.741-.556-7.121-.715-3.98-.268-7.974-.386-11.964-.386s-7.983.118-11.964.386c-2.38.16-4.76.373-7.121.715a24.094 24.094 0 0 0-6.579 1.634c-1.438.658-3.97 1.949-3.449 3.925.373 1.418 2.359 1.988 3.593 2.328 1.253.345 2.533.525 3.81.754" class="cls-2" transform="translate(-608.681 -323.278)"/>
        <path id="패스_398" d="M662.082 375.655a10.429 10.429 0 0 0 7.473-2.714 24.14 24.14 0 0 0 4.326-5.3 22.606 22.606 0 0 0 1.268-2.283 3.375 3.375 0 0 0 .458-1.272V355c-2.84-1.1-10.631-1.177-13.525-1.177s-10.684.081-13.525 1.177v9.089a3.373 3.373 0 0 0 .458 1.272 22.629 22.629 0 0 0 1.268 2.283 24.14 24.14 0 0 0 4.326 5.3 10.429 10.429 0 0 0 7.473 2.711z" class="cls-1" transform="translate(-632.899 -330.099)"/>
        <path id="패스_399" d="M717.444 357.535a4.592 4.592 0 1 1 0 9.184" class="cls-1" transform="translate(-674.737 -332.351)"/>
        <path id="선_88" d="M0 0L0 9.184" class="cls-1" transform="translate(42.707 25.184)"/>
        <path id="패스_400" d="M674.189 385.12h5.7v-1.82c-.182-3.054-3.49-3.054-5.7-3.054s-5.515 0-5.7 3.054v1.818z" class="cls-1" transform="translate(-645.007 -346.146)"/>
        <path id="패스_401" d="M677.958 409.442v2.867l-2.083 7.426a.679.679 0 0 1-1.2.216l-4.467-6.135h-2.942l-4.467 6.135a.679.679 0 0 1-1.2-.216l-2.083-7.426v-2.867" class="cls-2" transform="translate(-639.552 -363.876)"/>
        <path id="패스_402" fill="none" stroke="rgba(126,131,120,0.8)" stroke-linejoin="round" d="M648.19 414c6.3 1.507 15.4 3.156 18.519 10.552.864 1.785.718 3.7.718 5.8v7.95h-56.92v-7.95c0-2.106-.146-4.02.717-5.8 3.122-7.4 12.22-9.044 18.519-10.552" transform="translate(-609.784 -366.645)"/>
        <path id="패스_403" d="M713.468 317.674c.31-3.986 1.016-8.15 3.243-11.555a16.1 16.1 0 0 1 5.8-5.193" class="cls-2" transform="translate(-672.322 -297.97)"/>
        <path id="패스_404" d="M714.668 310.468a1.967 1.967 0 0 0 .4 2.457c.438.518.552.631.552.631a4.447 4.447 0 0 0 .213-.569 2.9 2.9 0 0 0 .111-.493 1 1 0 0 0-.057-.515 3.193 3.193 0 0 0-.344-.607 4.218 4.218 0 0 0-.395-.5c-.041-.044-.083-.086-.128-.126a2.725 2.725 0 0 0-.352-.278z" class="cls-1" transform="translate(-672.888 -303.766)"/>
        <path id="패스_405" d="M723.191 317.014a1.809 1.809 0 0 1-1.933 1.227c-.623.014-.771.005-.771.005a4.085 4.085 0 0 1 .261-.494 2.667 2.667 0 0 1 .271-.377.921.921 0 0 1 .389-.276 2.968 2.968 0 0 1 .627-.134 3.93 3.93 0 0 1 .585-.033 1.641 1.641 0 0 1 .165.011 2.5 2.5 0 0 1 .406.071z" class="cls-1" transform="translate(-676.585 -307.692)"/>
        <path id="패스_406" d="M718.934 304.947a1.881 1.881 0 0 0 .036 2.381c.344.551.436.674.436.674a4.271 4.271 0 0 0 .281-.508 2.787 2.787 0 0 0 .173-.452.954.954 0 0 0 .018-.5 3.086 3.086 0 0 0-.241-.622 4.133 4.133 0 0 0-.306-.528c-.033-.047-.067-.093-.1-.137a2.646 2.646 0 0 0-.297-.308z" class="cls-1" transform="translate(-675.392 -300.413)"/>
        <path id="패스_407" d="M726.173 312.391a1.808 1.808 0 0 1-2.013 1.089c-.623-.029-.77-.049-.77-.049a4.138 4.138 0 0 1 .295-.474 2.7 2.7 0 0 1 .3-.357.913.913 0 0 1 .407-.247 2.932 2.932 0 0 1 .635-.09 3.9 3.9 0 0 1 .586.008c.054.005.109.012.163.022a2.575 2.575 0 0 1 .397.098z" class="cls-1" transform="translate(-678.348 -304.852)"/>
        <path id="패스_408" d="M723.822 299.844a1.809 1.809 0 0 0-.261 2.274c.259.567.332.7.332.7a4.113 4.113 0 0 0 .33-.45 2.684 2.684 0 0 0 .221-.409.916.916 0 0 0 .078-.47 2.933 2.933 0 0 0-.153-.623 3.868 3.868 0 0 0-.225-.541c-.026-.049-.052-.1-.082-.143a2.55 2.55 0 0 0-.24-.338z" class="cls-1" transform="translate(-678.278 -297.314)"/>
        <path id="패스_409" d="M729.608 296.047a1.744 1.744 0 0 0-.661 2.107c.143.585.188.72.188.72a3.942 3.942 0 0 0 .395-.366 2.556 2.556 0 0 0 .284-.347.887.887 0 0 0 .159-.431 2.844 2.844 0 0 0-.032-.618 3.74 3.74 0 0 0-.116-.554c-.015-.051-.031-.1-.051-.15a2.456 2.456 0 0 0-.166-.361z" class="cls-1" transform="translate(-681.653 -295.008)"/>
        <path id="패스_410" d="M734.756 293.4a1.576 1.576 0 0 0-.684 1.873c.1.533.139.657.139.657a3.644 3.644 0 0 0 .371-.314 2.345 2.345 0 0 0 .27-.3.8.8 0 0 0 .162-.382 2.549 2.549 0 0 0 0-.558 3.379 3.379 0 0 0-.081-.5c-.012-.046-.024-.093-.04-.138a2.225 2.225 0 0 0-.137-.338z" class="cls-1" transform="translate(-684.789 -293.4)"/>
        <path id="패스_411" d="M730.3 308.228a1.809 1.809 0 0 1-2.174.716c-.608-.139-.749-.184-.749-.184a4.133 4.133 0 0 1 .374-.415 2.663 2.663 0 0 1 .356-.3.918.918 0 0 1 .445-.172 2.94 2.94 0 0 1 .641.024 3.873 3.873 0 0 1 .575.112c.053.014.106.031.157.051a2.557 2.557 0 0 1 .375.168z" class="cls-1" transform="translate(-680.772 -302.185)"/>
        <path id="패스_412" d="M734.963 304.768a1.732 1.732 0 0 1-2.167.334c-.553-.227-.679-.292-.679-.292a3.98 3.98 0 0 1 .419-.333 2.6 2.6 0 0 1 .383-.227.882.882 0 0 1 .447-.092 2.847 2.847 0 0 1 .6.124 3.73 3.73 0 0 1 .526.2c.047.022.095.046.14.073a2.449 2.449 0 0 1 .331.213z" class="cls-1" transform="translate(-683.648 -299.933)"/>
        <path id="패스_413" d="M739.876 302.431a1.5 1.5 0 0 1-1.892-.078c-.43-.284-.527-.36-.527-.36a3.393 3.393 0 0 1 .41-.212 2.226 2.226 0 0 1 .362-.128.757.757 0 0 1 .394 0 2.439 2.439 0 0 1 .489.2 3.229 3.229 0 0 1 .413.254c.037.027.073.055.106.085a2.083 2.083 0 0 1 .245.239z" class="cls-1" transform="translate(-686.892 -298.395)"/>
    </g>
</svg>
