<svg xmlns="http://www.w3.org/2000/svg" id="구성_요소_17_1" width="54.897" height="56.119" viewBox="0 0 54.897 56.119">
    <defs>
        <style>
            .cls-1{fill:#fff}.cls-2{fill:#5c6456}
        </style>
    </defs>
    <g id="그룹_1000">
        <g id="그룹_995">
            <path id="패스_826" d="M3205.821-1890.74a53.17 53.17 0 0 1-4.388 4.931c-5.307 5.307-11.051 7.246-16.45 6.824a22.826 22.826 0 0 1-5.773.739 22.759 22.759 0 0 1-22.76-22.759 22.76 22.76 0 0 1 20.979-22.691 22.834 22.834 0 0 1 2.118-2.851 22.706 22.706 0 0 1 17.168-7.817h.37a9.577 9.577 0 0 1 .612 3.382 9.618 9.618 0 0 1-8.445 9.544 22.688 22.688 0 0 1 2.349 1.335c5.959.216 11.551 2.423 15.256 6.135 6.623 6.626 5.618 14.663-1.036 23.228z" class="cls-1" transform="translate(-3156.45 1934.365)"/>
        </g>
        <g id="그룹_996" transform="translate(2.238 2.133)">
            <path id="패스_827" d="M3195.674-1865.025a20.182 20.182 0 0 1-20.159-20.159 20.131 20.131 0 0 1 12.312-18.574.709.709 0 0 1 .929.377.709.709 0 0 1-.377.929 18.717 18.717 0 0 0-11.447 17.269 18.762 18.762 0 0 0 18.741 18.741 18.762 18.762 0 0 0 18.741-18.741 18.762 18.762 0 0 0-18.741-18.741h-.709v-.875l.073-.153a20.107 20.107 0 0 1 3.742-5.244c.01-.014.022-.027.034-.041a.667.667 0 0 1 .09-.083 20.2 20.2 0 0 1 12.743-5.825l.707-.051.066.9a8.128 8.128 0 0 1-8.109 8.162 8.093 8.093 0 0 1-4.915-1.659 18.745 18.745 0 0 0-2.563 3.482 20.186 20.186 0 0 1 19 20.126 20.182 20.182 0 0 1-20.158 20.16zm0-39.614zm4.74-5.165a6.673 6.673 0 0 0 3.9 1.252 6.7 6.7 0 0 0 6.667-6.108 18.784 18.784 0 0 0-10.567 4.86z" class="cls-2" transform="translate(-3175.515 1916.197)"/>
        </g>
        <g id="그룹_997" transform="translate(23.852 15.976)">
            <path id="패스_828" d="M3365.4-1798.3l-.624.106a19.3 19.3 0 0 1 11.812 17.768 19.293 19.293 0 0 1-17 19.136c.262.085.525.17.787.248a19.655 19.655 0 0 0 16.563-19.385 19.634 19.634 0 0 0-11.538-17.873z" class="cls-2" transform="translate(-3359.592 1798.297)"/>
        </g>
        <g id="그룹_998" transform="translate(8.893 14.955)">
            <path id="패스_829" d="M3252.963-1767.261a18.2 18.2 0 0 1-5.228-.778c-.271-.081-.542-.168-.8-.253h-.014a23.236 23.236 0 0 1-8.669-5.57c-4.046-4.046-6.028-7.992-6.058-12.065-.034-4.491 2.289-9.013 7.1-13.825a24.609 24.609 0 0 1 12.911-6.8h.014c.208-.034.409-.069.61-.1h.017a25.276 25.276 0 0 1 10.887.615 20.192 20.192 0 0 1 8.782 4.993c7.24 7.24 5.494 16.643-5.048 27.194-4.353 4.334-9.367 6.589-14.504 6.589zm-5.589-2.369c.251.081.511.165.764.24 6.384 1.908 12.894-.036 18.331-5.474 4.861-4.865 7.791-9.45 8.708-13.629.944-4.307-.287-8.2-3.66-11.573-4.343-4.35-11.412-6.347-18.448-5.213l-.613.1a23.207 23.207 0 0 0-12.167 6.412c-4.531 4.531-6.719 8.724-6.688 12.818.028 3.684 1.875 7.308 5.646 11.079a21.834 21.834 0 0 0 8.127 5.24z" class="cls-1" transform="translate(-3232.191 1806.994)"/>
        </g>
        <g id="그룹_999" transform="translate(10.54 16.407)">
            <path id="패스_830" d="M3278.99-1763.917c-5.948 5.947-12.508 7.168-18.305 5.436-.252-.075-.5-.157-.757-.239a21.575 21.575 0 0 1-8.082-5.2c-7.052-7.052-8.293-14.649 1-23.945a22.961 22.961 0 0 1 12.064-6.356l.6-.1c6.977-1.126 14.056.92 18.332 5.2 7.058 7.056 4.444 15.902-4.852 25.204z" class="cls-2" transform="translate(-3246.217 1794.625)"/>
        </g>
    </g>
    <g id="그룹_1001" transform="translate(21.996 24.42)">
        <path id="패스_831" d="M3352.686-1719.6h-3.786v3.957h-1.433v-3.957h-3.679v-1.134h6.2a14.857 14.857 0 0 0 .268-3.058h-5.456v-1.133h6.834v.888a17.16 17.16 0 0 1-.246 3.3h1.294z" class="cls-1" transform="translate(-3343.789 1725.094)"/>
        <path id="패스_832" d="M3436.474-1722.017v1.123h-8.9v-1.123h3.732v-.856h-2.652v-3.507h6.758v1.112h-5.357v1.283h5.443v1.112h-2.781v.856zm-7.924 1.786h6.876v3.336h-1.412v-2.224h-5.464z" class="cls-1" transform="translate(-3417.739 1726.38)"/>
        <path id="패스_833" d="M3352.7-1614.62v1.112h-8.908v-1.112h3.743v-.984h-2.635v-3.4h1.411v2.277h5.39v1.123h-2.759v.984zm-1.07 3.465c0 1.166-1.294 1.839-3.422 1.839s-3.411-.673-3.411-1.839 1.283-1.829 3.411-1.829 3.42.664 3.42 1.829zm-1.433 0c0-.524-.673-.749-1.989-.749s-1.989.225-1.989.749.674.749 1.989.749 1.987-.235 1.987-.749z" class="cls-1" transform="translate(-3343.789 1631.611)"/>
        <path id="패스_834" d="M3431.853-1619.537a7.4 7.4 0 0 1-4.4 7.144l-.792-1.08c2.288-1.176 3.508-2.737 3.764-4.919h-3.219v-1.144zm4 3.914h-1.379v4.909h-1.412v-9.839h1.412v3.764h1.379z" class="cls-1" transform="translate(-3416.935 1632.978)"/>
    </g>
</svg>
