<svg xmlns="http://www.w3.org/2000/svg" id="구성_요소_16_1" width="54.897" height="56.119" viewBox="0 0 54.897 56.119">
    <defs>
        <style>
            .cls-1{fill:#fff}.cls-2{fill:#5c6456}
        </style>
    </defs>
    <g id="그룹_1003">
        <path id="패스_835" d="M2655.755-1890.74a53.135 53.135 0 0 1-4.388 4.931c-5.307 5.307-11.051 7.246-16.45 6.824a22.831 22.831 0 0 1-5.774.739 22.759 22.759 0 0 1-22.76-22.759 22.76 22.76 0 0 1 20.979-22.691 22.978 22.978 0 0 1 2.118-2.851 22.707 22.707 0 0 1 17.168-7.817h.37a9.582 9.582 0 0 1 .612 3.382 9.617 9.617 0 0 1-8.445 9.544 22.768 22.768 0 0 1 2.349 1.335c5.96.216 11.551 2.423 15.257 6.135 6.623 6.626 5.618 14.663-1.036 23.228z" class="cls-1" transform="translate(-2606.384 1934.365)"/>
    </g>
    <g id="그룹_1004" transform="translate(2.238 2.133)">
        <path id="패스_836" d="M2645.608-1865.025a20.182 20.182 0 0 1-20.159-20.159 20.131 20.131 0 0 1 12.312-18.574.708.708 0 0 1 .929.377.708.708 0 0 1-.377.929 18.716 18.716 0 0 0-11.446 17.269 18.762 18.762 0 0 0 18.741 18.741 18.762 18.762 0 0 0 18.741-18.741 18.762 18.762 0 0 0-18.741-18.741h-.708v-.875l.073-.153a20.1 20.1 0 0 1 3.741-5.244l.035-.041a.679.679 0 0 1 .089-.083 20.2 20.2 0 0 1 12.743-5.825l.707-.051.065.9a8.128 8.128 0 0 1-8.108 8.162 8.092 8.092 0 0 1-4.915-1.659 18.725 18.725 0 0 0-2.564 3.482 20.186 20.186 0 0 1 19 20.126 20.182 20.182 0 0 1-20.158 20.16zm0-39.614zm4.74-5.165a6.673 6.673 0 0 0 3.9 1.252 6.7 6.7 0 0 0 6.667-6.108 18.787 18.787 0 0 0-10.567 4.86z" class="cls-2" transform="translate(-2625.449 1916.197)"/>
    </g>
    <g id="그룹_1005" transform="translate(23.852 15.977)">
        <path id="패스_837" d="M2815.333-1798.3l-.624.106a19.3 19.3 0 0 1 11.812 17.768 19.292 19.292 0 0 1-17 19.136c.263.085.525.17.787.248a19.655 19.655 0 0 0 16.563-19.385 19.635 19.635 0 0 0-11.538-17.873z" class="cls-2" transform="translate(-2809.526 1798.297)"/>
    </g>
    <g id="그룹_1008" transform="translate(9.598 15.659)">
        <g id="그룹_1006" transform="translate(1.057 1.057)">
            <path id="패스_838" d="M2716.159-1755.784a16.581 16.581 0 0 1-4.748-.707c-.248-.073-.493-.153-.752-.237a21.471 21.471 0 0 1-7.992-5.148c-3.7-3.7-5.516-7.246-5.543-10.833-.03-3.995 2.124-8.105 6.585-12.566a22.853 22.853 0 0 1 11.98-6.315l.6-.1h.014a23.861 23.861 0 0 1 3.78-.3c5.6 0 10.965 2.025 14.351 5.417 3.283 3.283 4.482 7.067 3.564 11.249-.9 4.112-3.8 8.64-8.612 13.456-3.98 3.977-8.556 6.084-13.227 6.084z" class="cls-1" transform="translate(-2697.124 1791.997)"/>
        </g>
        <g id="그룹_1007">
            <path id="패스_839" d="M2712.145-1801v2.113a21.862 21.862 0 0 1 7.645 1.362 16.86 16.86 0 0 1 5.96 3.746c3.053 3.053 4.125 6.414 3.279 10.274-.858 3.912-3.66 8.264-8.327 12.935a20.982 20.982 0 0 1-6.3 4.451 15.258 15.258 0 0 1-6.184 1.332 15.532 15.532 0 0 1-4.448-.663c-.23-.068-.465-.145-.715-.225a20.417 20.417 0 0 1-7.582-4.894c-3.5-3.5-5.208-6.8-5.232-10.094a11.613 11.613 0 0 1 1.395-5.413 26.005 26.005 0 0 1 4.88-6.4 21.8 21.8 0 0 1 11.417-6.021l.6-.1a22.829 22.829 0 0 1 3.612-.288V-1801m0 0a24.838 24.838 0 0 0-3.959.317l-.624.106a23.875 23.875 0 0 0-12.542 6.608c-9.664 9.664-8.374 17.563-1.042 24.894a22.43 22.43 0 0 0 8.4 5.4c.263.085.524.17.787.248a17.616 17.616 0 0 0 5.05.751c4.629 0 9.474-1.9 13.979-6.4 9.664-9.671 12.38-18.867 5.048-26.2-3.635-3.641-9.218-5.727-15.1-5.727z" class="cls-2" transform="translate(-2688.125 1800.997)"/>
        </g>
    </g>
    <g id="그룹_1009" transform="translate(8.893 14.956)">
        <path id="패스_840" d="M2702.9-1767.258a18.2 18.2 0 0 1-5.228-.778c-.268-.08-.537-.167-.8-.251l-.02-.007a23.233 23.233 0 0 1-8.668-5.57c-4.046-4.046-6.028-7.992-6.059-12.065-.034-4.491 2.289-9.013 7.1-13.825a24.606 24.606 0 0 1 12.91-6.8h.015l.605-.1h.015a25.286 25.286 0 0 1 10.895.613 20.188 20.188 0 0 1 8.781 4.993c7.24 7.24 5.494 16.643-5.049 27.194-4.35 4.341-9.364 6.596-14.497 6.596zm-5.589-2.369c.256.083.514.167.763.241 6.384 1.908 12.893-.036 18.331-5.474 4.861-4.865 7.791-9.45 8.708-13.629.945-4.306-.286-8.2-3.659-11.573-4.343-4.35-11.412-6.347-18.448-5.213h-.007l-.606.1a23.2 23.2 0 0 0-12.167 6.412c-4.531 4.531-6.719 8.724-6.688 12.818.028 3.684 1.875 7.308 5.646 11.079a21.828 21.828 0 0 0 8.123 5.239z" class="cls-1" transform="translate(-2682.124 1806.99)"/>
    </g>
    <g id="그룹_1012" transform="translate(26.726 30.302)">
        <g id="그룹_1010" transform="translate(0 3.816)">
            <path id="선_299" d="M0 0L7.632 0" class="cls-1" transform="translate(0.705 0.705)"/>
            <path id="패스_841" d="M2842.336-1642.376h-7.636a.7.7 0 0 1-.7-.7.7.7 0 0 1 .7-.7h7.632a.7.7 0 0 1 .7.7.7.7 0 0 1-.696.7z" class="cls-2" transform="translate(-2834 1643.785)"/>
        </g>
        <g id="그룹_1011" transform="translate(3.816)">
            <path id="선_300" d="M0 0L0 7.632" class="cls-1" transform="translate(0.705 0.705)"/>
            <path id="패스_842" d="M2867.2-1667.244a.7.7 0 0 1-.7-.7v-7.632a.7.7 0 0 1 .7-.7.7.7 0 0 1 .7.7v7.632a.7.7 0 0 1-.7.7z" class="cls-2" transform="translate(-2866.5 1676.285)"/>
        </g>
    </g>
</svg>
