<svg xmlns="http://www.w3.org/2000/svg" width="68.289" height="46.526" viewBox="0 0 68.289 46.526">
    <defs>
        <style>
            .cls-1,.cls-2{fill:none;stroke:#5e6656;stroke-linecap:round;stroke-miterlimit:10;stroke-width:3px}.cls-1{stroke-linejoin:round}
        </style>
    </defs>
    <g id="그룹_432" transform="translate(1.5 1.5)">
        <path id="패스_319" d="M940.51-392.722h11.311l6.295 13.081H940.51z" class="cls-1" transform="translate(-897.228 397.338)"/>
        <path id="선_80" d="M21.301 0L0 0" class="cls-2" transform="translate(3.308 9.278)"/>
        <path id="선_81" d="M21.237 0L0 0" class="cls-2" transform="translate(0 17.35)"/>
        <path id="선_82" d="M0 0L12.465 0" class="cls-2" transform="translate(3.308 25.723)"/>
        <circle id="타원_256" cx="7.002" cy="7.002" r="7.002" class="cls-1" transform="translate(43.975 29.522)"/>
        <circle id="타원_257" cx="7.002" cy="7.002" r="7.002" class="cls-1" transform="translate(14.118 29.522)"/>
        <path id="선_83" d="M7.925 0L0 0" class="cls-2" transform="translate(6.309 36.524)"/>
        <path id="선_84" d="M16.158 0L0 0" class="cls-2" transform="translate(27.998 36.524)"/>
        <path id="패스_322" d="M852.241-403.619h37.13v17.7h17.481l4.369 4.844v14.854h-7.258" class="cls-1" transform="translate(-845.931 403.619)"/>
    </g>
</svg>
