<svg xmlns="http://www.w3.org/2000/svg" width="73.013" height="88.25" viewBox="0 0 73.013 88.25">
    <defs>
        <style>
            .cls-1,.cls-2,.cls-3{fill:none;stroke:#fff;stroke-miterlimit:10}.cls-1,.cls-2{stroke-width:3px}.cls-2{stroke-linecap:round}
        </style>
    </defs>
    <g id="그룹_590" transform="translate(15759.506 -7740.199)">
        <path id="패스_371" d="M544.064 1221.385a5.508 5.508 0 1 1 0-11.016" class="cls-1" transform="translate(-16283.285 6560.834)"/>
        <path id="선_87" d="M0 11.015L0 0" class="cls-1" transform="translate(-15739.222 7771.205)"/>
        <path id="패스_372" d="M582.358 1176.661c0-10.416-8.358-18.409-18.967-18.409s-18.967 7.993-18.967 18.409" class="cls-1" transform="translate(-16286.391 6588.407)"/>
        <path id="패스_373" d="M571.419 1207.117c1.531-.275 3.067-.491 4.57-.9 1.479-.408 3.86-1.091 4.308-2.792.624-2.371-2.412-3.919-4.136-4.708a28.908 28.908 0 0 0-7.89-1.96c-2.832-.41-5.687-.667-8.542-.858-4.774-.321-9.564-.463-14.349-.463s-9.574.142-14.349.463c-2.854.192-5.709.448-8.541.858a28.9 28.9 0 0 0-7.89 1.96c-1.725.789-4.761 2.338-4.136 4.708.448 1.7 2.829 2.384 4.308 2.792 1.5.413 3.039.63 4.57.9" class="cls-2" transform="translate(-16268.38 6568.737)"/>
        <path id="패스_374" d="M566.476 1232.842a12.508 12.508 0 0 0 8.963-3.255 28.945 28.945 0 0 0 5.188-6.351 27.076 27.076 0 0 0 1.521-2.738 4.04 4.04 0 0 0 .549-1.525v-10.9c-3.406-1.314-12.75-1.411-16.221-1.411s-12.814.1-16.221 1.411v10.9a4.048 4.048 0 0 0 .55 1.525 27.079 27.079 0 0 0 1.521 2.738 28.942 28.942 0 0 0 5.188 6.351 12.507 12.507 0 0 0 8.962 3.255z" class="cls-1" transform="translate(-16289.477 6562.797)"/>
        <path id="패스_375" d="M619.142 1210.37a5.508 5.508 0 1 1 0 11.016" class="cls-1" transform="translate(-16325.922 6560.834)"/>
        <path id="선_88" d="M0 0L0 11.015" class="cls-3" transform="translate(-15706.778 7771.205)"/>
        <path id="패스_376" d="M577.023 1238.926h6.832v-2.18c-.218-3.663-4.186-3.663-6.832-3.663s-6.614 0-6.832 3.663v2.18z" class="cls-1" transform="translate(-16300.023 6548.818)"/>
        <path id="패스_377" d="M583.333 1262.277v3.438l-2.5 8.906a.815.815 0 0 1-1.443.26l-5.357-7.357h-3.528l-5.357 7.357a.815.815 0 0 1-1.443-.26l-2.5-8.906v-3.438" class="cls-2" transform="translate(-16295.271 6533.373)"/>
        <path id="패스_378" fill="none" stroke="#fff" stroke-linejoin="round" stroke-width="3px" d="M557.4 1266.836c7.555 1.808 18.467 3.785 22.211 12.655 1.036 2.141.86 4.436.86 6.962v9.535h-68.264v-9.535c0-2.526-.175-4.821.86-6.962 3.745-8.87 14.657-10.847 22.211-12.655" transform="translate(-16269.341 6530.961)"/>
        <path id="패스_379" fill="none" stroke="#fff" stroke-linecap="round" stroke-miterlimit="10" d="M615.166 1173.848c.372-4.781 1.219-9.774 3.89-13.859a19.3 19.3 0 0 1 6.954-6.229" transform="translate(-16323.816 6590.784)"/>
        <path id="패스_380" d="M616.42 1163.3a2.358 2.358 0 0 0 .475 2.947c.525.621.662.757.662.757a5.417 5.417 0 0 0 .256-.682 3.465 3.465 0 0 0 .133-.591 1.2 1.2 0 0 0-.068-.618 3.854 3.854 0 0 0-.412-.727 5.1 5.1 0 0 0-.474-.6c-.049-.052-.1-.1-.153-.151a3.347 3.347 0 0 0-.419-.335z" class="cls-3" transform="translate(-16324.311 6585.735)"/>
        <path id="패스_381" d="M625.243 1169.716a2.17 2.17 0 0 1-2.318 1.471c-.748.017-.925.006-.925.006a4.919 4.919 0 0 1 .313-.592 3.248 3.248 0 0 1 .326-.452 1.1 1.1 0 0 1 .467-.33 3.506 3.506 0 0 1 .752-.161 4.69 4.69 0 0 1 .7-.04 1.894 1.894 0 0 1 .2.013 3 3 0 0 1 .485.085z" class="cls-3" transform="translate(-16327.434 6582.395)"/>
        <path id="패스_382" d="M620.714 1157.782a2.257 2.257 0 0 0 .044 2.855c.412.66.523.808.523.808a5.111 5.111 0 0 0 .336-.61 3.379 3.379 0 0 0 .208-.542 1.147 1.147 0 0 0 .021-.594 3.674 3.674 0 0 0-.29-.746 4.928 4.928 0 0 0-.366-.633c-.039-.056-.08-.111-.124-.164a3.121 3.121 0 0 0-.352-.374z" class="cls-3" transform="translate(-16326.491 6588.656)"/>
        <path id="패스_383" d="M628.241 1165.1a2.17 2.17 0 0 1-2.415 1.306c-.747-.035-.923-.058-.923-.058a4.859 4.859 0 0 1 .354-.569 3.2 3.2 0 0 1 .356-.429 1.1 1.1 0 0 1 .488-.3 3.5 3.5 0 0 1 .761-.108 4.728 4.728 0 0 1 .7.01c.065.006.131.014.2.027a3.058 3.058 0 0 1 .479.121z" class="cls-3" transform="translate(-16328.968 6584.869)"/>
        <path id="패스_384" d="M625.63 1152.679a2.169 2.169 0 0 0-.313 2.727c.311.681.4.835.4.835a4.985 4.985 0 0 0 .4-.54 3.267 3.267 0 0 0 .265-.49 1.1 1.1 0 0 0 .094-.564 3.542 3.542 0 0 0-.184-.747 4.758 4.758 0 0 0-.271-.649c-.03-.058-.062-.116-.1-.171a3.053 3.053 0 0 0-.291-.401z" class="cls-3" transform="translate(-16329.004 6591.356)"/>
        <path id="패스_385" d="M631.461 1148.881a2.094 2.094 0 0 0-.792 2.528c.171.7.225.864.225.864a4.753 4.753 0 0 0 .474-.439 3.091 3.091 0 0 0 .34-.417 1.059 1.059 0 0 0 .191-.517 3.434 3.434 0 0 0-.038-.741 4.57 4.57 0 0 0-.139-.664c-.018-.061-.038-.122-.062-.18a2.987 2.987 0 0 0-.199-.434z" class="cls-3" transform="translate(-16331.947 6593.365)"/>
        <path id="패스_386" d="M636.605 1146.235a1.89 1.89 0 0 0-.821 2.246c.125.64.167.788.167.788a4.318 4.318 0 0 0 .445-.377 2.789 2.789 0 0 0 .324-.362.957.957 0 0 0 .194-.458 3.114 3.114 0 0 0 0-.67 4.171 4.171 0 0 0-.1-.6c-.014-.056-.029-.111-.048-.165a2.638 2.638 0 0 0-.161-.402z" class="cls-3" transform="translate(-16334.678 6594.765)"/>
        <path id="패스_387" d="M632.586 1161.135a2.169 2.169 0 0 1-2.608.858c-.729-.166-.9-.22-.9-.22a4.9 4.9 0 0 1 .448-.5 3.193 3.193 0 0 1 .427-.358 1.1 1.1 0 0 1 .534-.206 3.51 3.51 0 0 1 .768.029 4.649 4.649 0 0 1 .69.133c.063.017.126.037.187.061a3.083 3.083 0 0 1 .454.203z" class="cls-3" transform="translate(-16331.178 6587.112)"/>
        <path id="패스_388" d="M637.229 1157.725a2.077 2.077 0 0 1-2.6.4c-.663-.272-.814-.35-.814-.35a4.747 4.747 0 0 1 .5-.4 3.112 3.112 0 0 1 .46-.272 1.056 1.056 0 0 1 .536-.111 3.378 3.378 0 0 1 .721.148 4.407 4.407 0 0 1 .631.235 1.823 1.823 0 0 1 .168.087 2.922 2.922 0 0 1 .398.263z" class="cls-3" transform="translate(-16333.685 6589.074)"/>
        <path id="패스_389" d="M641.809 1155.427a1.794 1.794 0 0 1-2.269-.093c-.516-.34-.632-.432-.632-.432a4.121 4.121 0 0 1 .492-.255 2.7 2.7 0 0 1 .435-.154.911.911 0 0 1 .472 0 2.95 2.95 0 0 1 .587.245 3.927 3.927 0 0 1 .5.3c.044.032.087.066.128.1a2.518 2.518 0 0 1 .287.289z" class="cls-3" transform="translate(-16336.378 6590.414)"/>
    </g>
</svg>
