<svg xmlns="http://www.w3.org/2000/svg" width="14.608" height="12.278" viewBox="0 0 14.608 12.278">
    <defs>
        <style>
            .cls-1{fill:#5c6754;stroke:#5c6854;stroke-width:.5px}
        </style>
    </defs>
    <g id="그룹_884" transform="translate(0.25 0.262)">
        <g id="그룹_875">
            <path id="패스_429" d="M126.581 259.243a.778.778 0 0 1-.51-.192l-3.707-3.209h-3.034v-3.11a.361.361 0 0 1 .721 0v2.389h2.581l3.91 3.384.105-.048v-10.2l-.341-.32.236.273-3.91 3.385h-2.942a.36.36 0 1 1 0-.721h2.673l3.707-3.209a.785.785 0 0 1 1.3.593v10.2a.776.776 0 0 1-.459.713.792.792 0 0 1-.33.072z" class="cls-1" transform="translate(-119.33 -247.478)"/>
        </g>
        <g id="그룹_872" transform="translate(11.538 0.644)">
            <path id="패스_431" d="M135.694 258.849a.361.361 0 0 1-.27-.6 7 7 0 0 0 0-9.28.36.36 0 0 1 .539-.478 7.721 7.721 0 0 1 0 10.236.359.359 0 0 1-.269.122z" class="cls-1" transform="translate(-135.333 -248.37)"/>
        </g>
        <g id="그룹_873" transform="translate(11.899 11.763)"/>
        <g id="그룹_876" transform="translate(10.202 9.927)"/>
        <g id="그룹_874" transform="translate(9.949 2.586)">
            <path id="패스_434" d="M133.381 257.658a.248.248 0 0 1-.158-.056.252.252 0 0 1-.04-.355 4.627 4.627 0 0 0 0-5.773.252.252 0 1 1 .394-.315 5.13 5.13 0 0 1 0 6.4.252.252 0 0 1-.196.099z" class="cls-1" transform="translate(-133.128 -251.065)"/>
        </g>
    </g>
</svg>
