<svg xmlns="http://www.w3.org/2000/svg" width="56.161" height="46.347" viewBox="0 0 56.161 46.347">
    <defs>
        <style>
            .cls-1,.cls-2{fill:none;stroke:#5e6656;stroke-miterlimit:10;stroke-width:3px}.cls-2{fill:#fff}
        </style>
    </defs>
    <g id="그룹_594" transform="translate(2.076 2.076)">
        <path id="사각형_711" d="M1.518 0h2.093a1.518 1.518 0 0 1 1.518 1.518v11.957H0V1.518A1.518 1.518 0 0 1 1.518 0z" class="cls-1" transform="rotate(-33.101 4.713 1.4)"/>
        <path id="사각형_712" d="M0 0h5.129v11.956a1.518 1.518 0 0 1-1.518 1.518H1.518A1.518 1.518 0 0 1 0 11.956V0z" class="cls-1" transform="rotate(-146.899 24.419 .41)"/>
        <rect id="사각형_713" width="39.37" height="31.081" class="cls-2" rx="1.103" transform="translate(6.32 11.69)"/>
        <path id="사각형_714" d="M0 0H12.084V31.081H0z" class="cls-2" transform="translate(19.963 11.69)"/>
    </g>
</svg>
