<svg xmlns="http://www.w3.org/2000/svg" width="36.216" height="39.107" viewBox="0 0 36.216 39.107">
    <defs>
        <style>
            .cls-1{fill:#fff;stroke:#5e6656;stroke-linejoin:round}
        </style>
    </defs>
    <g id="그룹_412" transform="translate(-464.392 -1021.5)">
        <path id="패스_285" d="M137.183 412.527a2.762 2.762 0 1 1 3.1-.009" class="cls-1" transform="translate(343.773 614.526)"/>
        <path id="패스_286" d="M136 573.359a4.62 4.62 0 1 1-9.24 0" class="cls-1" transform="translate(351.117 482.129)"/>
        <path id="패스_284" fill="#fff" stroke="#5e6656" stroke-linecap="round" stroke-linejoin="round" d="M80.461 460.725s16.808.412 17.22 0 .33-2.585 0-3.85-4.73-.623-5.83-12.026a20.089 20.089 0 0 0-.941-4.547 13.452 13.452 0 0 0-2.619-4.622 11.05 11.05 0 0 0-3.073-2.425 10.368 10.368 0 0 0-1.363-.6 9.74 9.74 0 0 0-3.394-.417 9.742 9.742 0 0 0-3.394.417 10.369 10.369 0 0 0-1.363.6 11.049 11.049 0 0 0-3.073 2.425 13.449 13.449 0 0 0-2.619 4.622 20.078 20.078 0 0 0-.941 4.547c-1.1 11.4-5.5 10.761-5.83 12.026s-.412 3.437 0 3.85 17.22 0 17.22 0z" transform="translate(402.039 594.763)"/>
    </g>
</svg>
