<svg xmlns="http://www.w3.org/2000/svg" width="20" height="22.993" viewBox="0 0 20 22.993">
    <path fill="#005600" d="M928.994 59.7h-.029a4.5 4.5 0 0 1-4.383-3.714c-.725-4.093 2.252-7.954 4.158-9.945 4.2-4.385 9.807-6.87 14.756-9.063l.552-.244a.3.3 0 0 1 .415.343l-.139.585c-1.245 5.251-2.656 11.2-6.2 16.123-1.624 2.252-4.916 5.915-9.13 5.915zm13.74-20.545a.3.3 0 0 0-.416-.344c-4.549 2.041-9.115 4.3-12.709 8.054-1.827 1.909-4.742 5.673-3.73 9.426a2.988 2.988 0 0 0 2.659 2.2c3.89.292 7.063-3.257 8.608-5.4 3.037-4.214 4.418-9.102 5.588-13.933z" transform="translate(-924.471 -36.71)"/>
</svg>
